<?xml version="1.0" encoding="UTF-8" standalone="no"?>
<!-- Created with Inkscape (http://www.inkscape.org/) -->

<svg
   version="1.1"
   id="svg2"
   xml:space="preserve"
   width="672.12531"
   height="672.12531"
   viewBox="0 0 672.12531 672.12531"
   sodipodi:docname="1235b8b2037883127f43b0c1a2c9bd07.ai"
   xmlns:inkscape="http://www.inkscape.org/namespaces/inkscape"
   xmlns:sodipodi="http://sodipodi.sourceforge.net/DTD/sodipodi-0.dtd"
   xmlns="http://www.w3.org/2000/svg"
   xmlns:svg="http://www.w3.org/2000/svg"><defs
     id="defs6"><radialGradient
       fx="0"
       fy="0"
       cx="0"
       cy="0"
       r="1"
       gradientUnits="userSpaceOnUse"
       gradientTransform="matrix(312.44208,-2.7626991,-2.7626991,-312.44208,256,256)"
       spreadMethod="pad"
       id="radialGradient30"><stop
         style="stop-opacity:1;stop-color:#0069b7"
         offset="0"
         id="stop22" /><stop
         style="stop-opacity:1;stop-color:#0069b7"
         offset="0.681454"
         id="stop24" /><stop
         style="stop-opacity:1;stop-color:#00578c"
         offset="0.907179"
         id="stop26" /><stop
         style="stop-opacity:1;stop-color:#00578c"
         offset="1"
         id="stop28" /></radialGradient><clipPath
       clipPathUnits="userSpaceOnUse"
       id="clipPath40"><path
         d="M 0,512 H 512 V 0 H 0 Z"
         id="path38" /></clipPath><linearGradient
       x1="0"
       y1="0"
       x2="1"
       y2="0"
       gradientUnits="userSpaceOnUse"
       gradientTransform="matrix(447.60992,0,0,-447.60992,32.195034,256)"
       spreadMethod="pad"
       id="linearGradient66"><stop
         style="stop-opacity:1;stop-color:#ffffff"
         offset="0"
         id="stop62" /><stop
         style="stop-opacity:1;stop-color:#e6f5ff"
         offset="1"
         id="stop64" /></linearGradient><clipPath
       clipPathUnits="userSpaceOnUse"
       id="clipPath76"><path
         d="M 0,512 H 512 V 0 H 0 Z"
         id="path74" /></clipPath><clipPath
       clipPathUnits="userSpaceOnUse"
       id="clipPath84"><path
         d="M 85.3701,417.948 H 428.722 V 96.6869 H 85.3701 Z"
         id="path82" /></clipPath><linearGradient
       x1="0"
       y1="0"
       x2="1"
       y2="0"
       gradientUnits="userSpaceOnUse"
       gradientTransform="matrix(120.45763,-53.110126,-53.110126,-120.45763,199.9364,161.09137)"
       spreadMethod="pad"
       id="linearGradient178"><stop
         style="stop-opacity:1;stop-color:#005284"
         offset="0"
         id="stop174" /><stop
         style="stop-opacity:1;stop-color:#004466"
         offset="1"
         id="stop176" /></linearGradient><linearGradient
       x1="0"
       y1="0"
       x2="1"
       y2="0"
       gradientUnits="userSpaceOnUse"
       gradientTransform="matrix(340.64841,-268.9671,-268.9671,-340.64841,88.953407,389.04013)"
       spreadMethod="pad"
       id="linearGradient198"><stop
         style="stop-opacity:1;stop-color:#0090d8"
         offset="0"
         id="stop194" /><stop
         style="stop-opacity:1;stop-color:#0069b7"
         offset="1"
         id="stop196" /></linearGradient><clipPath
       clipPathUnits="userSpaceOnUse"
       id="clipPath208"><path
         d="M 0,512 H 512 V 0 H 0 Z"
         id="path206" /></clipPath><linearGradient
       x1="0"
       y1="0"
       x2="1"
       y2="0"
       gradientUnits="userSpaceOnUse"
       gradientTransform="matrix(412.23367,-221.8656,-221.8656,-412.23367,54.337608,365.91956)"
       spreadMethod="pad"
       id="linearGradient230"><stop
         style="stop-opacity:1;stop-color:#ffffff"
         offset="0"
         id="stop226" /><stop
         style="stop-opacity:1;stop-color:#e6f5ff"
         offset="1"
         id="stop228" /></linearGradient><linearGradient
       x1="0"
       y1="0"
       x2="1"
       y2="0"
       gradientUnits="userSpaceOnUse"
       gradientTransform="matrix(104.25891,-104.25891,-104.25891,-104.25891,202.91705,162.46613)"
       spreadMethod="pad"
       id="linearGradient250"><stop
         style="stop-opacity:1;stop-color:#0069b7"
         offset="0"
         id="stop246" /><stop
         style="stop-opacity:1;stop-color:#00578c"
         offset="1"
         id="stop248" /></linearGradient><clipPath
       clipPathUnits="userSpaceOnUse"
       id="clipPath260"><path
         d="M 0,512 H 512 V 0 H 0 Z"
         id="path258" /></clipPath><linearGradient
       x1="0"
       y1="0"
       x2="1"
       y2="0"
       gradientUnits="userSpaceOnUse"
       gradientTransform="matrix(51.515976,-25.54306,-25.54306,-51.515976,305.64313,364.42776)"
       spreadMethod="pad"
       id="linearGradient298"><stop
         style="stop-opacity:1;stop-color:#aef4ff"
         offset="0"
         id="stop294" /><stop
         style="stop-opacity:1;stop-color:#00cde2"
         offset="1"
         id="stop296" /></linearGradient><linearGradient
       x1="0"
       y1="0"
       x2="1"
       y2="0"
       gradientUnits="userSpaceOnUse"
       gradientTransform="matrix(119.13492,-89.286217,-89.286217,-119.13492,271.61774,310.21371)"
       spreadMethod="pad"
       id="linearGradient318"><stop
         style="stop-opacity:1;stop-color:#aef4ff"
         offset="0"
         id="stop314" /><stop
         style="stop-opacity:1;stop-color:#00cde2"
         offset="1"
         id="stop316" /></linearGradient><linearGradient
       x1="0"
       y1="0"
       x2="1"
       y2="0"
       gradientUnits="userSpaceOnUse"
       gradientTransform="matrix(45.509186,-35.129955,-35.129955,-45.509186,160.14972,365.29678)"
       spreadMethod="pad"
       id="linearGradient338"><stop
         style="stop-opacity:1;stop-color:#aef4ff"
         offset="0"
         id="stop334" /><stop
         style="stop-opacity:1;stop-color:#00cde2"
         offset="1"
         id="stop336" /></linearGradient><linearGradient
       x1="0"
       y1="0"
       x2="1"
       y2="0"
       gradientUnits="userSpaceOnUse"
       gradientTransform="matrix(83.107758,0,0,-83.107758,136.60727,271.40979)"
       spreadMethod="pad"
       id="linearGradient358"><stop
         style="stop-opacity:1;stop-color:#aef4ff"
         offset="0"
         id="stop354" /><stop
         style="stop-opacity:1;stop-color:#00cde2"
         offset="1"
         id="stop356" /></linearGradient><clipPath
       clipPathUnits="userSpaceOnUse"
       id="clipPath368"><path
         d="M 0,512 H 512 V 0 H 0 Z"
         id="path366" /></clipPath><linearGradient
       x1="0"
       y1="0"
       x2="1"
       y2="0"
       gradientUnits="userSpaceOnUse"
       gradientTransform="matrix(74.047752,-23.357378,-23.357378,-74.047752,219.74695,385.63608)"
       spreadMethod="pad"
       id="linearGradient394"><stop
         style="stop-opacity:1;stop-color:#00cde2"
         offset="0"
         id="stop390" /><stop
         style="stop-opacity:1;stop-color:#0078c1"
         offset="1"
         id="stop392" /></linearGradient><linearGradient
       x1="0"
       y1="0"
       x2="1"
       y2="0"
       gradientUnits="userSpaceOnUse"
       gradientTransform="matrix(104.31646,-50.825397,-50.825397,-104.31646,204.10233,284.84805)"
       spreadMethod="pad"
       id="linearGradient414"><stop
         style="stop-opacity:1;stop-color:#00cde2"
         offset="0"
         id="stop410" /><stop
         style="stop-opacity:1;stop-color:#0078c1"
         offset="1"
         id="stop412" /></linearGradient><clipPath
       clipPathUnits="userSpaceOnUse"
       id="clipPath424"><path
         d="M 0,512 H 512 V 0 H 0 Z"
         id="path422" /></clipPath></defs><sodipodi:namedview
     id="namedview4"
     pagecolor="#ffffff"
     bordercolor="#666666"
     borderopacity="1.0"
     inkscape:pageshadow="2"
     inkscape:pageopacity="0.0"
     inkscape:pagecheckerboard="0" /><g
     id="g8"
     inkscape:groupmode="layer"
     inkscape:label="1235b8b2037883127f43b0c1a2c9bd07"
     transform="matrix(1.3333333,0,0,-1.3333333,-5.2705332,677.39585)"><g
       id="g10"><g
         id="g12"><g
           id="g18"><g
             id="g20"><path
               d="m 94.456,507.922 c -49.834,0 -90.378,-40.544 -90.378,-90.378 v 0 V 94.456 C 4.078,44.621 44.622,4.078 94.456,4.078 v 0 h 323.088 c 49.835,0 90.378,40.543 90.378,90.378 v 0 323.088 c 0,49.834 -40.543,90.378 -90.378,90.378 v 0 z"
               style="fill:url(#radialGradient30);stroke:none"
               id="path32" /></g></g></g></g><g
       id="g34"><g
         id="g36"
         clip-path="url(#clipPath40)"><g
           id="g42"
           transform="translate(417.5439,508.0469)"><path
             d="m 0,0 h -323.088 c -49.983,0 -90.503,-40.52 -90.503,-90.503 v -323.088 c 0,-49.983 40.52,-90.503 90.503,-90.503 H 0 c 49.983,0 90.503,40.52 90.503,90.503 V -90.503 C 90.503,-40.52 49.983,0 0,0 m 0,-0.25 c 49.766,0 90.253,-40.487 90.253,-90.253 v -323.088 c 0,-49.765 -40.487,-90.253 -90.253,-90.253 h -323.088 c -49.766,0 -90.253,40.488 -90.253,90.253 v 323.088 c 0,49.766 40.487,90.253 90.253,90.253 L 0,-0.25"
             style="fill:#006993;fill-opacity:1;fill-rule:nonzero;stroke:none"
             id="path44" /></g><g
           id="g46"
           transform="translate(410.0381,15.6641)"><path
             d="m 0,0 h -308.076 c -47.661,0 -86.298,38.637 -86.298,86.298 v 308.076 c 0,47.661 38.637,86.298 86.298,86.298 H 0 c 47.661,0 86.298,-38.637 86.298,-86.298 V 86.298 C 86.298,38.637 47.661,0 0,0"
             style="fill:#d4edff;fill-opacity:1;fill-rule:nonzero;stroke:none"
             id="path48" /></g></g></g><g
       id="g50"><g
         id="g52"><g
           id="g58"><g
             id="g60"><path
               d="m 103.174,479.805 c -39.201,0 -70.979,-31.778 -70.979,-70.979 v 0 -305.652 c 0,-39.2 31.778,-70.978 70.979,-70.978 v 0 h 305.652 c 39.2,0 70.978,31.778 70.978,70.978 v 0 305.652 c 0,39.201 -31.778,70.979 -70.978,70.979 v 0 z"
               style="fill:url(#linearGradient66);stroke:none"
               id="path68" /></g></g></g></g><g
       id="g70"><g
         id="g72"
         clip-path="url(#clipPath76)"><g
           id="g78"><g
             id="g80" /><g
             id="g160"><g
               clip-path="url(#clipPath84)"
               opacity="0.5"
               id="g158"><g
                 transform="translate(316.5791,106.6084)"
                 id="g88"><path
                   d="m 0,0 h -119.065 c -3.235,0 -5.857,2.622 -5.857,5.856 v 44.658 c 0,3.234 2.622,5.856 5.857,5.856 L 0,56.37 c 3.234,0 5.856,-2.622 5.856,-5.856 V 5.856 C 5.856,2.622 3.234,0 0,0"
                   style="fill:#002a4f;fill-opacity:1;fill-rule:nonzero;stroke:none"
                   id="path86" /></g><g
                 transform="translate(123.98,139.4951)"
                 id="g92"><path
                   d="m 0,0 c -21.29,0 -38.61,17.32 -38.61,38.609 v 155.586 c 0,21.29 17.32,38.61 38.61,38.61 h 266.133 c 21.289,0 38.61,-17.32 38.61,-38.61 V 38.609 C 304.743,17.32 287.422,0 266.133,0 Z"
                   style="fill:#002a4f;fill-opacity:1;fill-rule:nonzero;stroke:none"
                   id="path90" /></g><g
                 transform="translate(394.2363,157.1572)"
                 id="g96"><path
                   d="m 0,0 h -274.38 c -9.291,0 -16.823,7.532 -16.823,16.823 v 163.834 c 0,9.291 7.532,16.823 16.823,16.823 H 0 c 9.291,0 16.823,-7.532 16.823,-16.823 V 16.823 C 16.823,7.532 9.291,0 0,0"
                   style="fill:#002a4f;fill-opacity:1;fill-rule:nonzero;stroke:none"
                   id="path94" /></g><g
                 transform="translate(385.3584,165.7119)"
                 id="g100"><path
                   d="m 0,0 h -256.624 c -8.581,0 -15.538,6.956 -15.538,15.538 v 149.295 c 0,8.582 6.957,15.538 15.538,15.538 H 0 c 8.581,0 15.538,-6.956 15.538,-15.538 V 15.538 C 15.538,6.956 8.581,0 0,0"
                   style="fill:#002a4f;fill-opacity:1;fill-rule:nonzero;stroke:none"
                   id="path98" /></g><g
                 transform="translate(166.1421,96.8115)"
                 id="g104"><path
                   d="m 0,0 c -2.439,0 -4.424,1.985 -4.424,4.425 v 14.201 c 0,2.439 1.985,4.424 4.424,4.424 h 181.809 c 2.44,0 4.424,-1.985 4.424,-4.424 V 4.425 C 186.233,1.985 184.249,0 181.809,0 Z"
                   style="fill:#002a4f;fill-opacity:1;fill-rule:nonzero;stroke:none"
                   id="path102" /></g><g
                 transform="translate(347.9512,119.9863)"
                 id="g108"><path
                   d="m 0,0 h -181.809 c -2.513,0 -4.549,-2.036 -4.549,-4.549 V -18.75 c 0,-2.513 2.036,-4.55 4.549,-4.55 H 0 c 2.512,0 4.549,2.037 4.549,4.55 V -4.549 C 4.549,-2.036 2.512,0 0,0 m 0,-0.25 c 2.37,0 4.299,-1.929 4.299,-4.299 V -18.75 c 0,-2.371 -1.929,-4.3 -4.299,-4.3 h -181.809 c -2.371,0 -4.299,1.929 -4.299,4.3 v 14.201 c 0,2.37 1.928,4.299 4.299,4.299 L 0,-0.25"
                   style="fill:#002a4f;fill-opacity:1;fill-rule:nonzero;stroke:none"
                   id="path106" /></g><g
                 transform="translate(333.9316,314.0137)"
                 id="g112"><path
                   d="m 0,0 c -19.508,0 -35.379,15.871 -35.379,35.379 0,19.509 15.871,35.38 35.379,35.38 19.508,0 35.379,-15.871 35.379,-35.38 C 35.379,15.871 19.508,0 0,0"
                   style="fill:#002a4f;fill-opacity:1;fill-rule:nonzero;stroke:none"
                   id="path110" /></g><g
                 transform="translate(300.1416,214.584)"
                 id="g116"><path
                   d="m 0,0 c -7.939,0 -14.398,6.459 -14.398,14.398 v 55.246 c 0,22.06 17.947,40.008 40.007,40.008 h 16.362 c 22.06,0 40.008,-17.948 40.008,-40.008 V 14.398 C 81.979,6.459 75.52,0 67.58,0 Z"
                   style="fill:#002a4f;fill-opacity:1;fill-rule:nonzero;stroke:none"
                   id="path114" /></g><g
                 transform="translate(180.1611,314.0137)"
                 id="g120"><path
                   d="m 0,0 c -19.508,0 -35.379,15.871 -35.379,35.379 0,19.509 15.871,35.38 35.379,35.38 19.508,0 35.379,-15.871 35.379,-35.38 C 35.379,15.871 19.508,0 0,0"
                   style="fill:#002a4f;fill-opacity:1;fill-rule:nonzero;stroke:none"
                   id="path118" /></g><g
                 transform="translate(146.3711,214.584)"
                 id="g124"><path
                   d="m 0,0 c -7.939,0 -14.399,6.459 -14.399,14.398 v 55.246 c 0,22.06 17.948,40.008 40.008,40.008 h 16.362 c 22.06,0 40.008,-17.948 40.008,-40.008 V 14.398 C 81.979,6.459 75.52,0 67.58,0 Z"
                   style="fill:#002a4f;fill-opacity:1;fill-rule:nonzero;stroke:none"
                   id="path122" /></g><g
                 transform="translate(362.6758,349.3931)"
                 id="g128"><path
                   d="m 0,0 c 0,-15.875 -12.869,-28.744 -28.744,-28.744 -15.875,0 -28.744,12.869 -28.744,28.744 0,15.875 12.869,28.744 28.744,28.744 C -12.869,28.744 0,15.875 0,0"
                   style="fill:#002a4f;fill-opacity:1;fill-rule:nonzero;stroke:none"
                   id="path126" /></g><g
                 transform="translate(367.7217,221.2187)"
                 id="g132"><path
                   d="m 0,0 h -67.58 c -4.288,0 -7.764,3.477 -7.764,7.764 v 55.245 c 0,18.431 14.942,33.373 33.373,33.373 h 16.362 C -7.178,96.382 7.764,81.44 7.764,63.009 V 7.764 C 7.764,3.477 4.288,0 0,0"
                   style="fill:#002a4f;fill-opacity:1;fill-rule:nonzero;stroke:none"
                   id="path130" /></g><g
                 transform="translate(208.9053,349.3931)"
                 id="g136"><path
                   d="m 0,0 c 0,-15.875 -12.869,-28.744 -28.744,-28.744 -15.875,0 -28.744,12.869 -28.744,28.744 0,15.875 12.869,28.744 28.744,28.744 C -12.869,28.744 0,15.875 0,0"
                   style="fill:#002a4f;fill-opacity:1;fill-rule:nonzero;stroke:none"
                   id="path134" /></g><g
                 transform="translate(213.9512,221.2187)"
                 id="g140"><path
                   d="m 0,0 h -67.58 c -4.288,0 -7.764,3.477 -7.764,7.764 v 55.245 c 0,18.431 14.942,33.373 33.373,33.373 h 16.362 C -7.178,96.382 7.764,81.44 7.764,63.009 V 7.764 C 7.764,3.477 4.288,0 0,0"
                   style="fill:#002a4f;fill-opacity:1;fill-rule:nonzero;stroke:none"
                   id="path138" /></g><g
                 transform="translate(257.0469,327.0542)"
                 id="g144"><path
                   d="m 0,0 c -25.06,0 -45.447,20.388 -45.447,45.447 0,25.06 20.387,45.447 45.447,45.447 25.06,0 45.446,-20.387 45.446,-45.447 C 45.446,20.388 25.06,0 0,0"
                   style="fill:#002a4f;fill-opacity:1;fill-rule:nonzero;stroke:none"
                   id="path142" /></g><g
                 transform="translate(211.4214,192.7988)"
                 id="g148"><path
                   d="m 0,0 c -9.439,0 -17.119,7.679 -17.119,17.118 v 74.594 c 0,28.506 23.192,51.698 51.698,51.698 h 22.092 c 28.506,0 51.697,-23.192 51.697,-51.698 V 17.118 C 108.368,7.679 100.689,0 91.25,0 Z"
                   style="fill:#002a4f;fill-opacity:1;fill-rule:nonzero;stroke:none"
                   id="path146" /></g><g
                 transform="translate(295.8584,372.5015)"
                 id="g152"><path
                   d="m 0,0 c 0,-21.435 -17.377,-38.812 -38.813,-38.812 -21.434,0 -38.811,17.377 -38.811,38.812 0,21.435 17.377,38.812 38.811,38.812 C -17.377,38.812 0,21.435 0,0"
                   style="fill:#002a4f;fill-opacity:1;fill-rule:nonzero;stroke:none"
                   id="path150" /></g><g
                 transform="translate(302.6719,199.4336)"
                 id="g156"><path
                   d="m 0,0 h -91.25 c -5.79,0 -10.484,4.693 -10.484,10.483 v 74.595 c 0,24.887 20.175,45.062 45.063,45.062 h 22.092 c 24.887,0 45.061,-20.175 45.061,-45.062 V 10.483 C 10.482,4.693 5.789,0 0,0"
                   style="fill:#002a4f;fill-opacity:1;fill-rule:nonzero;stroke:none"
                   id="path154" /></g></g></g></g></g></g><g
       id="g162"><g
         id="g164"><g
           id="g170"><g
             id="g172"><path
               d="m 195.513,164.978 c -3.234,0 -5.856,-2.622 -5.856,-5.856 v 0 -44.657 c 0,-3.235 2.622,-5.857 5.856,-5.857 v 0 h 119.066 c 3.234,0 5.856,2.622 5.856,5.857 v 0 44.657 c 0,3.234 -2.622,5.856 -5.856,5.856 v 0 z"
               style="fill:url(#linearGradient178);stroke:none"
               id="path180" /></g></g></g></g><g
       id="g182"><g
         id="g184"><g
           id="g190"><g
             id="g192"><path
               d="m 121.98,374.3 c -21.29,0 -38.61,-17.32 -38.61,-38.61 v 0 -155.586 c 0,-21.288 17.32,-38.609 38.61,-38.609 v 0 h 266.133 c 21.289,0 38.609,17.321 38.609,38.609 v 0 155.586 c 0,21.29 -17.32,38.61 -38.609,38.61 v 0 z"
               style="fill:url(#linearGradient198);stroke:none"
               id="path200" /></g></g></g></g><g
       id="g202"><g
         id="g204"
         clip-path="url(#clipPath208)"><g
           id="g210"
           transform="translate(392.2363,159.1572)"><path
             d="m 0,0 h -274.38 c -9.291,0 -16.823,7.532 -16.823,16.823 v 163.834 c 0,9.291 7.532,16.823 16.823,16.823 H 0 c 9.291,0 16.823,-7.532 16.823,-16.823 V 16.823 C 16.823,7.532 9.291,0 0,0"
             style="fill:#cbe5f7;fill-opacity:1;fill-rule:nonzero;stroke:none"
             id="path212" /></g></g></g><g
       id="g214"><g
         id="g216"><g
           id="g222"><g
             id="g224"><path
               d="m 126.735,348.083 c -8.582,0 -15.539,-6.957 -15.539,-15.538 v 0 -149.295 c 0,-8.582 6.957,-15.538 15.539,-15.538 v 0 h 256.624 c 8.58,0 15.537,6.956 15.537,15.538 v 0 149.295 c 0,8.581 -6.957,15.538 -15.537,15.538 v 0 z"
               style="fill:url(#linearGradient230);stroke:none"
               id="path232" /></g></g></g></g><g
       id="g234"><g
         id="g236"><g
           id="g242"><g
             id="g244"><path
               d="m 164.142,121.861 c -2.439,0 -4.424,-1.984 -4.424,-4.424 v 0 -14.201 c 0,-2.439 1.985,-4.424 4.424,-4.424 v 0 h 181.809 c 2.44,0 4.424,1.985 4.424,4.424 v 0 14.201 c 0,2.44 -1.984,4.424 -4.424,4.424 v 0 z"
               style="fill:url(#linearGradient250);stroke:none"
               id="path252" /></g></g></g></g><g
       id="g254"><g
         id="g256"
         clip-path="url(#clipPath260)"><g
           id="g262"
           transform="translate(345.9512,121.9863)"><path
             d="m 0,0 h -181.809 c -2.513,0 -4.549,-2.036 -4.549,-4.549 V -18.75 c 0,-2.513 2.036,-4.55 4.549,-4.55 H 0 c 2.512,0 4.549,2.037 4.549,4.55 V -4.549 C 4.549,-2.036 2.512,0 0,0 m 0,-0.25 c 2.37,0 4.299,-1.929 4.299,-4.299 V -18.75 c 0,-2.371 -1.929,-4.3 -4.299,-4.3 h -181.809 c -2.371,0 -4.299,1.929 -4.299,4.3 v 14.201 c 0,2.37 1.928,4.299 4.299,4.299 L 0,-0.25"
             style="fill:#006993;fill-opacity:1;fill-rule:nonzero;stroke:none"
             id="path264" /></g><g
           id="g266"
           transform="translate(331.9316,316.0137)"><path
             d="m 0,0 c -19.508,0 -35.379,15.871 -35.379,35.379 0,19.509 15.871,35.38 35.379,35.38 19.508,0 35.379,-15.871 35.379,-35.38 C 35.379,15.871 19.508,0 0,0"
             style="fill:#ffffff;fill-opacity:1;fill-rule:nonzero;stroke:none"
             id="path268" /></g><g
           id="g270"
           transform="translate(298.1416,216.584)"><path
             d="m 0,0 c -7.939,0 -14.398,6.459 -14.398,14.398 v 55.246 c 0,22.06 17.947,40.008 40.007,40.008 h 16.362 c 22.06,0 40.008,-17.948 40.008,-40.008 V 14.398 C 81.979,6.459 75.52,0 67.58,0 Z"
             style="fill:#ffffff;fill-opacity:1;fill-rule:nonzero;stroke:none"
             id="path272" /></g><g
           id="g274"
           transform="translate(178.1611,316.0137)"><path
             d="m 0,0 c -19.508,0 -35.379,15.871 -35.379,35.379 0,19.509 15.871,35.38 35.379,35.38 19.508,0 35.379,-15.871 35.379,-35.38 C 35.379,15.871 19.508,0 0,0"
             style="fill:#ffffff;fill-opacity:1;fill-rule:nonzero;stroke:none"
             id="path276" /></g><g
           id="g278"
           transform="translate(144.3711,216.584)"><path
             d="m 0,0 c -7.939,0 -14.399,6.459 -14.399,14.398 v 55.246 c 0,22.06 17.948,40.008 40.008,40.008 h 16.362 c 22.06,0 40.008,-17.948 40.008,-40.008 V 14.398 C 81.979,6.459 75.52,0 67.58,0 Z"
             style="fill:#ffffff;fill-opacity:1;fill-rule:nonzero;stroke:none"
             id="path280" /></g></g></g><g
       id="g282"><g
         id="g284"><g
           id="g290"><g
             id="g292"><path
               d="m 303.187,351.393 c 0,-15.875 12.87,-28.744 28.745,-28.744 v 0 c 15.875,0 28.744,12.869 28.744,28.744 v 0 c 0,15.875 -12.869,28.744 -28.744,28.744 v 0 c -15.875,0 -28.745,-12.869 -28.745,-28.744"
               style="fill:url(#linearGradient298);stroke:none"
               id="path300" /></g></g></g></g><g
       id="g302"><g
         id="g304"><g
           id="g310"><g
             id="g312"><path
               d="m 323.751,319.601 c -18.431,0 -33.373,-14.942 -33.373,-33.373 v 0 -55.246 c 0,-4.286 3.476,-7.763 7.763,-7.763 v 0 h 67.58 c 4.289,0 7.765,3.477 7.765,7.763 v 0 55.246 c 0,18.431 -14.942,33.373 -33.373,33.373 v 0 z"
               style="fill:url(#linearGradient318);stroke:none"
               id="path320" /></g></g></g></g><g
       id="g322"><g
         id="g324"><g
           id="g330"><g
             id="g332"><path
               d="m 149.417,351.393 c 0,-15.875 12.869,-28.744 28.744,-28.744 v 0 c 15.875,0 28.745,12.869 28.745,28.744 v 0 c 0,15.875 -12.87,28.744 -28.745,28.744 v 0 c -15.875,0 -28.744,-12.869 -28.744,-28.744"
               style="fill:url(#linearGradient338);stroke:none"
               id="path340" /></g></g></g></g><g
       id="g342"><g
         id="g344"><g
           id="g350"><g
             id="g352"><path
               d="m 169.98,319.601 c -18.431,0 -33.373,-14.942 -33.373,-33.373 v 0 -55.246 c 0,-4.286 3.476,-7.763 7.764,-7.763 v 0 h 67.58 c 4.288,0 7.764,3.477 7.764,7.763 v 0 55.246 c 0,18.431 -14.942,33.373 -33.374,33.373 v 0 z"
               style="fill:url(#linearGradient358);stroke:none"
               id="path360" /></g></g></g></g><g
       id="g362"><g
         id="g364"
         clip-path="url(#clipPath368)"><g
           id="g370"
           transform="translate(255.0464,329.0542)"><path
             d="m 0,0 c -25.06,0 -45.447,20.388 -45.447,45.447 0,25.06 20.387,45.447 45.447,45.447 25.06,0 45.447,-20.387 45.447,-45.447 C 45.447,20.388 25.06,0 0,0"
             style="fill:#ffffff;fill-opacity:1;fill-rule:nonzero;stroke:none"
             id="path372" /></g><g
           id="g374"
           transform="translate(209.4214,194.7988)"><path
             d="m 0,0 c -9.439,0 -17.119,7.679 -17.119,17.118 v 74.594 c 0,28.506 23.192,51.698 51.698,51.698 h 22.092 c 28.506,0 51.697,-23.192 51.697,-51.698 V 17.118 C 108.368,7.679 100.689,0 91.25,0 Z"
             style="fill:#ffffff;fill-opacity:1;fill-rule:nonzero;stroke:none"
             id="path376" /></g></g></g><g
       id="g378"><g
         id="g380"><g
           id="g386"><g
             id="g388"><path
               d="m 216.235,374.502 c 0,-21.436 17.376,-38.813 38.811,-38.813 v 0 c 21.436,0 38.812,17.377 38.812,38.813 v 0 c 0,21.434 -17.376,38.811 -38.812,38.811 v 0 c -21.435,0 -38.811,-17.377 -38.811,-38.811"
               style="fill:url(#linearGradient394);stroke:none"
               id="path396" /></g></g></g></g><g
       id="g398"><g
         id="g400"><g
           id="g406"><g
             id="g408"><path
               d="m 244.001,331.573 c -24.888,0 -45.063,-20.175 -45.063,-45.062 v 0 -74.594 c 0,-5.79 4.694,-10.483 10.483,-10.483 v 0 h 91.251 c 5.789,0 10.482,4.693 10.482,10.483 v 0 74.594 c 0,24.887 -20.174,45.062 -45.061,45.062 v 0 z"
               style="fill:url(#linearGradient414);stroke:none"
               id="path416" /></g></g></g></g><g
       id="g418"><g
         id="g420"
         clip-path="url(#clipPath424)"><g
           id="g426"
           transform="translate(240.6406,271.6987)"><path
             d="m 0,0 4.141,7.089 -18.37,0.005 1.306,-4.131 c 0.558,-1.765 2.178,-2.961 4.011,-2.961 z"
             style="fill:#fdfeff;fill-opacity:1;fill-rule:nonzero;stroke:none"
             id="path428" /></g><g
           id="g430"
           transform="translate(276.5918,278.7769)"><path
             d="m 0,0 -18.238,0.007 -4.139,-7.09 21.509,-0.008 c 0.244,0 0.309,-0.211 0.309,-0.321 0,-0.11 -0.049,-0.196 -0.151,-0.257 l -5.181,-3.115 0.002,-8.243 9.514,5.719 c 2.2,1.33 3.465,3.544 3.465,6.076 C 7.092,-3.68 4.44,-0.002 0,0"
             style="fill:#fdfeff;fill-opacity:1;fill-rule:nonzero;stroke:none"
             id="path432" /></g><g
           id="g434"
           transform="translate(241.9043,250.6055)"><path
             d="m 0,0 -6.72,-11.513 c -0.327,-0.685 0.121,-0.65 0.534,-0.459 0.35,0.213 0.68,0.413 0.939,0.572 l 22.292,13.462 -0.002,8.24 z"
             style="fill:#fdfeff;fill-opacity:1;fill-rule:nonzero;stroke:none"
             id="path436" /></g><g
           id="g438"
           transform="translate(261.3281,269.3096)"><path
             d="m 0,0 c 0,0 0.006,-20.905 0.006,-26.358 0,-1.854 1.361,-3.527 2.931,-4.056 1.017,-0.346 4.085,-1.321 4.085,-1.321 L 7.014,-0.002 Z"
             style="fill:#fdfeff;fill-opacity:1;fill-rule:nonzero;stroke:none"
             id="path440" /></g><g
           id="g442"
           transform="translate(260.7471,287.5522)"><path
             d="m 0,0 c 0.066,0.099 0.147,0.147 0.26,0.147 0.105,0 0.316,-0.065 0.316,-0.312 V -6.386 L 7.591,-6.395 7.582,0.714 c 0,4.485 -3.638,7.166 -7.153,7.166 -2.506,0 -4.696,-1.275 -6.006,-3.504 l -25.224,-43.119 c -0.778,-1.33 -0.872,-2.953 -0.252,-4.361 l 2.514,-5.735 z"
             style="fill:#fdfeff;fill-opacity:1;fill-rule:nonzero;stroke:none"
             id="path444" /></g></g></g></g></svg>
