<?xml version="1.0" encoding="UTF-8" standalone="no"?>
<!-- Created with Inkscape (http://www.inkscape.org/) -->

<svg
   version="1.1"
   id="svg2"
   xml:space="preserve"
   width="672.12531"
   height="672.12531"
   viewBox="0 0 672.12531 672.12531"
   sodipodi:docname="c34a48c559c12caa7402221012d86369.ai"
   xmlns:inkscape="http://www.inkscape.org/namespaces/inkscape"
   xmlns:sodipodi="http://sodipodi.sourceforge.net/DTD/sodipodi-0.dtd"
   xmlns="http://www.w3.org/2000/svg"
   xmlns:svg="http://www.w3.org/2000/svg"><defs
     id="defs6"><radialGradient
       fx="0"
       fy="0"
       cx="0"
       cy="0"
       r="1"
       gradientUnits="userSpaceOnUse"
       gradientTransform="matrix(312.44208,-2.7626991,-2.7626991,-312.44208,256,256)"
       spreadMethod="pad"
       id="radialGradient30"><stop
         style="stop-opacity:1;stop-color:#0069b7"
         offset="0"
         id="stop22" /><stop
         style="stop-opacity:1;stop-color:#0069b7"
         offset="0.681454"
         id="stop24" /><stop
         style="stop-opacity:1;stop-color:#00578c"
         offset="0.907179"
         id="stop26" /><stop
         style="stop-opacity:1;stop-color:#00578c"
         offset="1"
         id="stop28" /></radialGradient><clipPath
       clipPathUnits="userSpaceOnUse"
       id="clipPath40"><path
         d="M 0,512 H 512 V 0 H 0 Z"
         id="path38" /></clipPath><linearGradient
       x1="0"
       y1="0"
       x2="1"
       y2="0"
       gradientUnits="userSpaceOnUse"
       gradientTransform="matrix(447.60992,0,0,-447.60992,32.195034,256)"
       spreadMethod="pad"
       id="linearGradient66"><stop
         style="stop-opacity:1;stop-color:#ffffff"
         offset="0"
         id="stop62" /><stop
         style="stop-opacity:1;stop-color:#e6f5ff"
         offset="1"
         id="stop64" /></linearGradient><clipPath
       clipPathUnits="userSpaceOnUse"
       id="clipPath76"><path
         d="M 0,512 H 512 V 0 H 0 Z"
         id="path74" /></clipPath><clipPath
       clipPathUnits="userSpaceOnUse"
       id="clipPath84"><path
         d="M 146.31,425.669 H 369.69 V 82.3314 H 146.31 Z"
         id="path82" /></clipPath><linearGradient
       x1="0"
       y1="0"
       x2="1"
       y2="0"
       gradientUnits="userSpaceOnUse"
       gradientTransform="matrix(113.78086,0,0,-113.78086,170.39807,393.36447)"
       spreadMethod="pad"
       id="linearGradient186"><stop
         style="stop-opacity:1;stop-color:#005284"
         offset="0"
         id="stop182" /><stop
         style="stop-opacity:1;stop-color:#004466"
         offset="1"
         id="stop184" /></linearGradient><linearGradient
       x1="0"
       y1="0"
       x2="1"
       y2="0"
       gradientUnits="userSpaceOnUse"
       gradientTransform="matrix(147.57989,0,0,-147.57989,144.55684,306.46494)"
       spreadMethod="pad"
       id="linearGradient206"><stop
         style="stop-opacity:1;stop-color:#005284"
         offset="0"
         id="stop202" /><stop
         style="stop-opacity:1;stop-color:#004466"
         offset="1"
         id="stop204" /></linearGradient><clipPath
       clipPathUnits="userSpaceOnUse"
       id="clipPath216"><path
         d="M 0,512 H 512 V 0 H 0 Z"
         id="path214" /></clipPath><linearGradient
       x1="0"
       y1="0"
       x2="1"
       y2="0"
       gradientUnits="userSpaceOnUse"
       gradientTransform="matrix(160.77,0,0,-160.77,168.30005,290.27661)"
       spreadMethod="pad"
       id="linearGradient238"><stop
         style="stop-opacity:1;stop-color:#00cde2"
         offset="0"
         id="stop234" /><stop
         style="stop-opacity:1;stop-color:#0078c1"
         offset="1"
         id="stop236" /></linearGradient><clipPath
       clipPathUnits="userSpaceOnUse"
       id="clipPath248"><path
         d="M 0,512 H 512 V 0 H 0 Z"
         id="path246" /></clipPath><linearGradient
       x1="0"
       y1="0"
       x2="1"
       y2="0"
       gradientUnits="userSpaceOnUse"
       gradientTransform="matrix(73.16777,0,0,-73.16777,194.72511,230.47897)"
       spreadMethod="pad"
       id="linearGradient270"><stop
         style="stop-opacity:1;stop-color:#aef4ff"
         offset="0"
         id="stop266" /><stop
         style="stop-opacity:1;stop-color:#00cde2"
         offset="1"
         id="stop268" /></linearGradient><linearGradient
       x1="0"
       y1="0"
       x2="1"
       y2="0"
       gradientUnits="userSpaceOnUse"
       gradientTransform="matrix(4.2307892,0,0,-4.2307892,190.49432,231.68051)"
       spreadMethod="pad"
       id="linearGradient290"><stop
         style="stop-opacity:1;stop-color:#00cde2"
         offset="0"
         id="stop286" /><stop
         style="stop-opacity:1;stop-color:#0078c1"
         offset="1"
         id="stop288" /></linearGradient><linearGradient
       x1="0"
       y1="0"
       x2="1"
       y2="0"
       gradientUnits="userSpaceOnUse"
       gradientTransform="matrix(172.96463,0,0,-172.96463,194.72511,271.28897)"
       spreadMethod="pad"
       id="linearGradient310"><stop
         style="stop-opacity:1;stop-color:#0090d8"
         offset="0"
         id="stop306" /><stop
         style="stop-opacity:1;stop-color:#0069b7"
         offset="1"
         id="stop308" /></linearGradient><linearGradient
       x1="0"
       y1="0"
       x2="1"
       y2="0"
       gradientUnits="userSpaceOnUse"
       gradientTransform="matrix(50.070801,0,0,-50.070801,144.5293,281.07227)"
       spreadMethod="pad"
       id="linearGradient330"><stop
         style="stop-opacity:1;stop-color:#0069b7"
         offset="0"
         id="stop326" /><stop
         style="stop-opacity:1;stop-color:#00578c"
         offset="1"
         id="stop328" /></linearGradient><clipPath
       clipPathUnits="userSpaceOnUse"
       id="clipPath340"><path
         d="M 0,512 H 512 V 0 H 0 Z"
         id="path338" /></clipPath><linearGradient
       x1="0"
       y1="0"
       x2="1"
       y2="0"
       gradientUnits="userSpaceOnUse"
       gradientTransform="matrix(4.4160156,0,0,-4.4160156,194.8501,263.38965)"
       spreadMethod="pad"
       id="linearGradient362"><stop
         style="stop-opacity:1;stop-color:#0069b7"
         offset="0"
         id="stop358" /><stop
         style="stop-opacity:1;stop-color:#00578c"
         offset="1"
         id="stop360" /></linearGradient><clipPath
       clipPathUnits="userSpaceOnUse"
       id="clipPath372"><path
         d="M 0,512 H 512 V 0 H 0 Z"
         id="path370" /></clipPath><linearGradient
       x1="0"
       y1="0"
       x2="1"
       y2="0"
       gradientUnits="userSpaceOnUse"
       gradientTransform="matrix(54.397461,0,0,-54.397461,144.65332,394.67871)"
       spreadMethod="pad"
       id="linearGradient394"><stop
         style="stop-opacity:1;stop-color:#0069b7"
         offset="0"
         id="stop390" /><stop
         style="stop-opacity:1;stop-color:#00578c"
         offset="1"
         id="stop392" /></linearGradient><clipPath
       clipPathUnits="userSpaceOnUse"
       id="clipPath404"><path
         d="M 0,512 H 512 V 0 H 0 Z"
         id="path402" /></clipPath><linearGradient
       x1="0"
       y1="0"
       x2="1"
       y2="0"
       gradientUnits="userSpaceOnUse"
       gradientTransform="matrix(114.72906,0,0,-114.72906,194.72511,278.24838)"
       spreadMethod="pad"
       id="linearGradient426"><stop
         style="stop-opacity:1;stop-color:#aef4ff"
         offset="0"
         id="stop422" /><stop
         style="stop-opacity:1;stop-color:#00cde2"
         offset="1"
         id="stop424" /></linearGradient><clipPath
       clipPathUnits="userSpaceOnUse"
       id="clipPath436"><path
         d="M 0,512 H 512 V 0 H 0 Z"
         id="path434" /></clipPath></defs><sodipodi:namedview
     id="namedview4"
     pagecolor="#ffffff"
     bordercolor="#666666"
     borderopacity="1.0"
     inkscape:pageshadow="2"
     inkscape:pageopacity="0.0"
     inkscape:pagecheckerboard="0" /><g
     id="g8"
     inkscape:groupmode="layer"
     inkscape:label="c34a48c559c12caa7402221012d86369"
     transform="matrix(1.3333333,0,0,-1.3333333,-5.2705332,677.39585)"><g
       id="g10"><g
         id="g12"><g
           id="g18"><g
             id="g20"><path
               d="m 94.456,507.922 c -49.834,0 -90.378,-40.544 -90.378,-90.378 v 0 V 94.456 C 4.078,44.621 44.622,4.078 94.456,4.078 v 0 h 323.088 c 49.835,0 90.378,40.543 90.378,90.378 v 0 323.088 c 0,49.834 -40.543,90.378 -90.378,90.378 v 0 z"
               style="fill:url(#radialGradient30);stroke:none"
               id="path32" /></g></g></g></g><g
       id="g34"><g
         id="g36"
         clip-path="url(#clipPath40)"><g
           id="g42"
           transform="translate(417.5439,508.0469)"><path
             d="m 0,0 h -323.088 c -49.983,0 -90.503,-40.52 -90.503,-90.503 v -323.088 c 0,-49.983 40.52,-90.503 90.503,-90.503 H 0 c 49.983,0 90.503,40.52 90.503,90.503 V -90.503 C 90.503,-40.52 49.983,0 0,0 m 0,-0.25 c 49.766,0 90.253,-40.487 90.253,-90.253 v -323.088 c 0,-49.765 -40.487,-90.253 -90.253,-90.253 h -323.088 c -49.766,0 -90.253,40.488 -90.253,90.253 v 323.088 c 0,49.766 40.487,90.253 90.253,90.253 L 0,-0.25"
             style="fill:#006993;fill-opacity:1;fill-rule:nonzero;stroke:none"
             id="path44" /></g><g
           id="g46"
           transform="translate(410.0381,15.6641)"><path
             d="m 0,0 h -308.076 c -47.661,0 -86.298,38.637 -86.298,86.298 v 308.076 c 0,47.661 38.637,86.298 86.298,86.298 H 0 c 47.661,0 86.298,-38.637 86.298,-86.298 V 86.298 C 86.298,38.637 47.661,0 0,0"
             style="fill:#d4edff;fill-opacity:1;fill-rule:nonzero;stroke:none"
             id="path48" /></g></g></g><g
       id="g50"><g
         id="g52"><g
           id="g58"><g
             id="g60"><path
               d="m 103.174,479.805 c -39.201,0 -70.979,-31.778 -70.979,-70.979 v 0 -305.652 c 0,-39.2 31.778,-70.978 70.979,-70.978 v 0 h 305.652 c 39.2,0 70.978,31.778 70.978,70.978 v 0 305.652 c 0,39.201 -31.778,70.979 -70.978,70.979 v 0 z"
               style="fill:url(#linearGradient66);stroke:none"
               id="path68" /></g></g></g></g><g
       id="g70"><g
         id="g72"
         clip-path="url(#clipPath76)"><g
           id="g78"><g
             id="g80" /><g
             id="g168"><g
               clip-path="url(#clipPath84)"
               opacity="0.5"
               id="g166"><g
                 transform="translate(281.5586,392.0605)"
                 id="g88"><path
                   d="m 0,0 -108.974,-11.71 -0.187,10.032 108.038,11.964 C 1.99,10.63 4.693,8.152 4.619,5.021 4.557,2.425 2.581,0.277 0,0"
                   style="fill:#002a4f;fill-opacity:1;fill-rule:nonzero;stroke:none"
                   id="path86" /></g><g
                 transform="translate(294.1367,200.0596)"
                 id="g92"><path
                   d="m 0,0 -147.58,-16.798 v 226.969 l 134.974,15.364 C -5.888,226.3 0,221.044 0,214.282 Z"
                   style="fill:#002a4f;fill-opacity:1;fill-rule:nonzero;stroke:none"
                   id="path90" /></g><g
                 transform="translate(293.8281,184.5322)"
                 id="g96"><path
                   d="m 0,0 -144.093,-2.852 -0.794,215.256 132.282,15.952 C -5.888,229.131 0,223.81 0,216.963 Z"
                   style="fill:#002a4f;fill-opacity:1;fill-rule:nonzero;stroke:none"
                   id="path94" /></g><g
                 transform="translate(331.0703,183.25)"
                 id="g100"><path
                   d="M 0,0 -160.77,-15.555 V 207.93 l 148.164,17.604 C -5.888,226.299 0,221.043 0,214.281 Z"
                   style="fill:#002a4f;fill-opacity:1;fill-rule:nonzero;stroke:none"
                   id="path98" /></g><g
                 transform="translate(328.5332,215.3848)"
                 id="g104"><path
                   d="m 0,0 -160.771,-19.038 1.245,184.931 146.92,14.866 C -5.888,181.524 0,176.269 0,169.507 Z"
                   style="fill:#002a4f;fill-opacity:1;fill-rule:nonzero;stroke:none"
                   id="path102" /></g><g
                 transform="translate(265.7998,99.2344)"
                 id="g108"><path
                   d="m 0,0 -29.098,16.686 c -2.174,1.247 -4.923,0.81 -6.605,-1.049 l -28.611,-31.635 c -1.679,-1.855 -4.761,-0.668 -4.761,1.834 V 275.392 H 4.093 V 2.371 C 4.093,0.271 1.822,-1.045 0,0"
                   style="fill:#002a4f;fill-opacity:1;fill-rule:nonzero;stroke:none"
                   id="path106" /></g><g
                 transform="translate(193.481,87.6289)"
                 id="g112"><path
                   d="M 0,0 3.244,-3.31 V 287.413 L -0.987,286.417 -0.904,2.212 C -0.904,1.385 -0.579,0.591 0,0"
                   style="fill:#002a4f;fill-opacity:1;fill-rule:nonzero;stroke:none"
                   id="path110" /></g><g
                 transform="translate(356.3037,164.1895)"
                 id="g116"><path
                   d="M 0,0 -159.579,-16.532 V 210.437 L -3.075,226.65 c 8.803,0.912 16.461,-5.993 16.461,-14.844 V 14.844 C 13.386,7.197 7.606,0.787 0,0"
                   style="fill:#002a4f;fill-opacity:1;fill-rule:nonzero;stroke:none"
                   id="path114" /></g><g
                 transform="translate(146.5293,183.583)"
                 id="g120"><path
                   d="M 0,0 V 226.662 L 50.071,190.979 V -35.684 Z"
                   style="fill:#002a4f;fill-opacity:1;fill-rule:nonzero;stroke:none"
                   id="path118" /></g><g
                 transform="translate(146.4043,410.4878)"
                 id="g124"><path
                   d="m 0,0 v -226.969 l 50.321,-35.862 v 226.97 z M 0.25,-0.485 50.071,-35.99 V -262.345 L 0.25,-226.84 Z"
                   style="fill:#002a4f;fill-opacity:1;fill-rule:nonzero;stroke:none"
                   id="path122" /></g><g
                 transform="translate(196.8501,374.5142)"
                 id="g128"><path
                   d="M 0,0 4.416,0.471 3.919,-226.37 0,-226.72 Z"
                   style="fill:#002a4f;fill-opacity:1;fill-rule:nonzero;stroke:none"
                   id="path126" /></g><g
                 transform="translate(201.3916,375.124)"
                 id="g132"><path
                   d="m 0,0 -4.667,-0.498 v -226.969 l 4.169,0.373 z m -0.251,-0.278 -0.497,-226.587 -3.669,-0.328 V -0.722 Z"
                   style="fill:#002a4f;fill-opacity:1;fill-rule:nonzero;stroke:none"
                   id="path130" /></g><g
                 transform="translate(146.6533,410.0977)"
                 id="g136"><path
                   d="m 0,0 4.73,0.504 49.667,-35.388 -4.292,-0.458 z"
                   style="fill:#002a4f;fill-opacity:1;fill-rule:nonzero;stroke:none"
                   id="path134" /></g><g
                 transform="translate(151.3706,410.7261)"
                 id="g140"><path
                   d="m 0,0 -5.061,-0.539 50.415,-35.561 4.667,0.498 z m -0.068,-0.258 49.407,-35.165 -3.918,-0.418 -49.795,35.124 z"
                   style="fill:#002a4f;fill-opacity:1;fill-rule:nonzero;stroke:none"
                   id="path138" /></g><g
                 transform="translate(286.4561,250.7148)"
                 id="g144"><path
                   d="m 0,0 -89.731,-6.301 v 58.127 l 82.112,5.283 C 9.651,59.414 24.998,45.979 24.998,28.555 24.998,14.117 14.311,1.909 0,0"
                   style="fill:#002a4f;fill-opacity:1;fill-rule:nonzero;stroke:none"
                   id="path142" /></g><g
                 transform="translate(269.7988,280.748)"
                 id="g148"><path
                   d="M 0,0 2.371,5.451 -10.836,3.882 -9.544,1.024 c 0.553,-1.221 1.819,-1.942 3.138,-1.785 z"
                   style="fill:#002a4f;fill-opacity:1;fill-rule:nonzero;stroke:none"
                   id="path146" /></g><g
                 transform="translate(295.04,288.9131)"
                 id="g152"><path
                   d="m 0,0 -13.113,-1.556 -2.369,-5.451 15.464,1.835 c 0.175,0.021 0.241,-0.126 0.25,-0.204 0.009,-0.08 -0.019,-0.145 -0.086,-0.199 l -3.459,-2.682 0.707,-5.926 6.35,4.926 c 1.468,1.144 2.188,2.844 1.971,4.664 C 5.412,-2.039 3.192,0.378 0,0"
                   style="fill:#002a4f;fill-opacity:1;fill-rule:nonzero;stroke:none"
                   id="path150" /></g><g
                 transform="translate(272.5127,265.6914)"
                 id="g156"><path
                   d="m 0,0 -3.846,-8.851 c -0.176,-0.521 0.143,-0.458 0.423,-0.285 0.234,0.183 0.453,0.356 0.626,0.491 L 12.077,2.941 11.371,8.865 Z"
                   style="fill:#002a4f;fill-opacity:1;fill-rule:nonzero;stroke:none"
                   id="path154" /></g><g
                 transform="translate(284.876,280.8003)"
                 id="g160"><path
                   d="m 0,0 c 0,0 1.794,-15.028 2.261,-18.949 0.158,-1.332 1.279,-2.418 2.453,-2.665 0.761,-0.161 3.051,-0.6 3.051,-0.6 L 5.043,0.599 Z"
                   style="fill:#002a4f;fill-opacity:1;fill-rule:nonzero;stroke:none"
                   id="path158" /></g><g
                 transform="translate(282.8975,293.8657)"
                 id="g164"><path
                   d="M 0,0 C 0.039,0.077 0.094,0.119 0.174,0.128 0.25,0.137 0.407,0.108 0.429,-0.069 L 0.961,-4.542 6.004,-3.948 5.39,1.163 C 5.006,4.386 2.161,6.003 -0.366,5.702 -2.167,5.488 -3.633,4.384 -4.384,2.669 l -14.444,-33.158 c -0.445,-1.022 -0.374,-2.197 0.191,-3.157 l 2.299,-3.908 z"
                   style="fill:#002a4f;fill-opacity:1;fill-rule:nonzero;stroke:none"
                   id="path162" /></g></g></g></g></g></g><g
       id="g170"><g
         id="g172"><g
           id="g178"><g
             id="g180"><path
               d="m 278.436,404.347 -108.038,-11.964 0.187,-10.032 108.974,11.709 c 2.58,0.278 4.557,2.425 4.619,5.021 v 0 c 0.069,2.936 -2.302,5.298 -5.164,5.298 v 0 c -0.19,0 -0.384,-0.011 -0.578,-0.032"
               style="fill:url(#linearGradient186);stroke:none"
               id="path188" /></g></g></g></g><g
       id="g190"><g
         id="g192"><g
           id="g198"><g
             id="g200"><path
               d="M 279.53,427.594 144.556,412.231 v -226.97 l 147.58,16.799 v 214.282 c 0,6.322 -5.145,11.327 -11.305,11.327 v 0 c -0.429,0 -0.863,-0.025 -1.301,-0.075"
               style="fill:url(#linearGradient206);stroke:none"
               id="path208" /></g></g></g></g><g
       id="g210"><g
         id="g212"
         clip-path="url(#clipPath216)"><g
           id="g218"
           transform="translate(291.8281,186.5322)"><path
             d="m 0,0 -144.093,-2.852 -0.794,215.256 132.282,15.952 C -5.888,229.131 0,223.81 0,216.963 Z"
             style="fill:#ffffff;fill-opacity:1;fill-rule:nonzero;stroke:none"
             id="path220" /></g></g></g><g
       id="g222"><g
         id="g224"><g
           id="g230"><g
             id="g232"><path
               d="M 316.464,410.784 168.3,393.18 V 169.695 l 160.771,15.555 v 214.282 c 0,6.322 -5.147,11.327 -11.307,11.326 v 0 c -0.429,0 -0.863,-0.024 -1.3,-0.074"
               style="fill:url(#linearGradient238);stroke:none"
               id="path240" /></g></g></g></g><g
       id="g242"><g
         id="g244"
         clip-path="url(#clipPath248)"><g
           id="g250"
           transform="translate(326.5332,217.3848)"><path
             d="m 0,0 -160.771,-19.038 1.245,184.931 146.92,14.866 C -5.888,181.524 0,176.269 0,169.507 Z"
             style="fill:#ffffff;fill-opacity:1;fill-rule:nonzero;stroke:none"
             id="path252" /></g></g></g><g
       id="g254"><g
         id="g256"><g
           id="g262"><g
             id="g264"><path
               d="M 194.725,376.627 V 87.07 c 0,-2.502 3.082,-3.689 4.76,-1.834 v 0 l 28.612,31.635 c 1.681,1.86 4.431,2.296 6.605,1.049 v 0 L 263.8,101.235 c 1.822,-1.045 4.092,0.27 4.092,2.37 v 0 273.022 z"
               style="fill:url(#linearGradient270);stroke:none"
               id="path272" /></g></g></g></g><g
       id="g274"><g
         id="g276"><g
           id="g282"><g
             id="g284"><path
               d="M 190.494,376.046 190.577,91.84 c 0,-0.827 0.325,-1.62 0.904,-2.211 v 0 l 3.244,-3.31 v 290.723 z"
               style="fill:url(#linearGradient290);stroke:none"
               id="path292" /></g></g></g></g><g
       id="g294"><g
         id="g296"><g
           id="g302"><g
             id="g304"><path
               d="M 351.229,392.84 194.725,376.627 v -226.97 l 159.579,16.532 c 7.606,0.788 13.386,7.198 13.386,14.844 v 0 196.962 c 0,8.323 -6.772,14.926 -14.9,14.926 v 0 c -0.515,0 -1.036,-0.027 -1.561,-0.081"
               style="fill:url(#linearGradient310);stroke:none"
               id="path312" /></g></g></g></g><g
       id="g314"><g
         id="g316"><g
           id="g322"><g
             id="g324"><path
               d="M 144.529,185.583 194.6,149.899 v 226.663 l -50.071,35.683 z"
               style="fill:url(#linearGradient330);stroke:none"
               id="path332" /></g></g></g></g><g
       id="g334"><g
         id="g336"
         clip-path="url(#clipPath340)"><g
           id="g342"
           transform="translate(144.4043,412.4878)"><path
             d="m 0,0 v -226.969 l 50.321,-35.862 v 226.97 z M 0.25,-0.485 50.071,-35.99 V -262.345 L 0.25,-226.84 Z"
             style="fill:#006993;fill-opacity:1;fill-rule:nonzero;stroke:none"
             id="path344" /></g></g></g><g
       id="g346"><g
         id="g348"><g
           id="g354"><g
             id="g356"><path
               d="m 194.85,376.514 v -226.72 l 3.919,0.35 0.497,226.842 z"
               style="fill:url(#linearGradient362);stroke:none"
               id="path364" /></g></g></g></g><g
       id="g366"><g
         id="g368"
         clip-path="url(#clipPath372)"><g
           id="g374"
           transform="translate(199.3916,377.124)"><path
             d="m 0,0 -4.667,-0.498 v -226.969 l 4.169,0.373 z m -0.251,-0.278 -0.497,-226.587 -3.669,-0.328 V -0.722 Z"
             style="fill:#006993;fill-opacity:1;fill-rule:nonzero;stroke:none"
             id="path376" /></g></g></g><g
       id="g378"><g
         id="g380"><g
           id="g386"><g
             id="g388"><path
               d="m 144.653,412.097 50.106,-35.341 4.292,0.458 -49.667,35.387 z"
               style="fill:url(#linearGradient394);stroke:none"
               id="path396" /></g></g></g></g><g
       id="g398"><g
         id="g400"
         clip-path="url(#clipPath404)"><g
           id="g406"
           transform="translate(149.3706,412.7261)"><path
             d="m 0,0 -5.061,-0.539 50.415,-35.561 4.667,0.498 z m -0.068,-0.258 49.407,-35.165 -3.918,-0.418 -49.795,35.124 z"
             style="fill:#006993;fill-opacity:1;fill-rule:nonzero;stroke:none"
             id="path408" /></g></g></g><g
       id="g410"><g
         id="g412"><g
           id="g418"><g
             id="g420"><path
               d="m 276.837,309.824 -82.112,-5.283 v -58.127 l 89.731,6.301 c 14.311,1.909 24.998,14.116 24.998,28.555 v 0 c 0,16.113 -13.121,28.813 -28.753,28.812 v 0 c -1.272,0 -2.564,-0.085 -3.864,-0.258"
               style="fill:url(#linearGradient426);stroke:none"
               id="path428" /></g></g></g></g><g
       id="g430"><g
         id="g432"
         clip-path="url(#clipPath436)"><g
           id="g438"
           transform="translate(267.7988,282.748)"><path
             d="M 0,0 2.371,5.451 -10.836,3.882 -9.544,1.024 c 0.553,-1.221 1.819,-1.942 3.138,-1.785 z"
             style="fill:#ffffff;fill-opacity:1;fill-rule:nonzero;stroke:none"
             id="path440" /></g><g
           id="g442"
           transform="translate(293.04,290.9131)"><path
             d="m 0,0 -13.113,-1.556 -2.369,-5.451 15.464,1.835 c 0.175,0.021 0.241,-0.126 0.25,-0.204 0.009,-0.08 -0.019,-0.145 -0.086,-0.199 l -3.459,-2.682 0.707,-5.926 6.35,4.926 c 1.468,1.144 2.188,2.844 1.971,4.664 C 5.412,-2.039 3.192,0.378 0,0"
             style="fill:#ffffff;fill-opacity:1;fill-rule:nonzero;stroke:none"
             id="path444" /></g><g
           id="g446"
           transform="translate(270.5127,267.6914)"><path
             d="m 0,0 -3.846,-8.851 c -0.176,-0.521 0.143,-0.458 0.423,-0.285 0.234,0.183 0.453,0.356 0.626,0.491 L 12.077,2.941 11.371,8.865 Z"
             style="fill:#ffffff;fill-opacity:1;fill-rule:nonzero;stroke:none"
             id="path448" /></g><g
           id="g450"
           transform="translate(282.876,282.8003)"><path
             d="m 0,0 c 0,0 1.794,-15.028 2.261,-18.949 0.158,-1.332 1.279,-2.418 2.453,-2.665 0.761,-0.161 3.051,-0.6 3.051,-0.6 L 5.043,0.599 Z"
             style="fill:#ffffff;fill-opacity:1;fill-rule:nonzero;stroke:none"
             id="path452" /></g><g
           id="g454"
           transform="translate(280.8975,295.8657)"><path
             d="M 0,0 C 0.039,0.077 0.094,0.119 0.174,0.128 0.25,0.137 0.407,0.108 0.429,-0.069 L 0.961,-4.542 6.004,-3.948 5.39,1.163 C 5.006,4.386 2.161,6.003 -0.366,5.702 -2.167,5.488 -3.633,4.384 -4.384,2.669 l -14.444,-33.158 c -0.445,-1.022 -0.374,-2.197 0.191,-3.157 l 2.299,-3.908 z"
             style="fill:#ffffff;fill-opacity:1;fill-rule:nonzero;stroke:none"
             id="path456" /></g></g></g></g></svg>
