<?xml version="1.0" encoding="UTF-8" standalone="no"?>
<!-- Created with Inkscape (http://www.inkscape.org/) -->

<svg
   version="1.1"
   id="svg2"
   xml:space="preserve"
   width="672.12396"
   height="672.12531"
   viewBox="0 0 672.12397 672.12531"
   sodipodi:docname="d44e85985f9c8de655e4623c05d23336.ai"
   xmlns:inkscape="http://www.inkscape.org/namespaces/inkscape"
   xmlns:sodipodi="http://sodipodi.sourceforge.net/DTD/sodipodi-0.dtd"
   xmlns="http://www.w3.org/2000/svg"
   xmlns:svg="http://www.w3.org/2000/svg"><defs
     id="defs6"><radialGradient
       fx="0"
       fy="0"
       cx="0"
       cy="0"
       r="1"
       gradientUnits="userSpaceOnUse"
       gradientTransform="matrix(312.44208,-2.7626991,-2.7626991,-312.44208,256.41528,255.82446)"
       spreadMethod="pad"
       id="radialGradient30"><stop
         style="stop-opacity:1;stop-color:#0069b7"
         offset="0"
         id="stop22" /><stop
         style="stop-opacity:1;stop-color:#0069b7"
         offset="0.681454"
         id="stop24" /><stop
         style="stop-opacity:1;stop-color:#00578c"
         offset="0.907179"
         id="stop26" /><stop
         style="stop-opacity:1;stop-color:#00578c"
         offset="1"
         id="stop28" /></radialGradient><clipPath
       clipPathUnits="userSpaceOnUse"
       id="clipPath40"><path
         d="M 0,512 H 512 V 0 H 0 Z"
         id="path38" /></clipPath><linearGradient
       x1="0"
       y1="0"
       x2="1"
       y2="0"
       gradientUnits="userSpaceOnUse"
       gradientTransform="matrix(447.60989,0,0,-447.60989,32.610279,255.82455)"
       spreadMethod="pad"
       id="linearGradient66"><stop
         style="stop-opacity:1;stop-color:#ffffff"
         offset="0"
         id="stop62" /><stop
         style="stop-opacity:1;stop-color:#e6f5ff"
         offset="1"
         id="stop64" /></linearGradient><clipPath
       clipPathUnits="userSpaceOnUse"
       id="clipPath76"><path
         d="M 0,512 H 512 V 0 H 0 Z"
         id="path74" /></clipPath><clipPath
       clipPathUnits="userSpaceOnUse"
       id="clipPath84"><path
         d="M 101.37,351.061 H 415.46 V 153.087 H 101.37 Z"
         id="path82" /></clipPath><linearGradient
       x1="0"
       y1="0"
       x2="1"
       y2="0"
       gradientUnits="userSpaceOnUse"
       gradientTransform="matrix(313.83984,0,0,-313.83984,99.495117,268.57129)"
       spreadMethod="pad"
       id="linearGradient126"><stop
         style="stop-opacity:1;stop-color:#0069b7"
         offset="0"
         id="stop122" /><stop
         style="stop-opacity:1;stop-color:#00578c"
         offset="1"
         id="stop124" /></linearGradient><clipPath
       clipPathUnits="userSpaceOnUse"
       id="clipPath136"><path
         d="M 0,512 H 512 V 0 H 0 Z"
         id="path134" /></clipPath><linearGradient
       x1="0"
       y1="0"
       x2="1"
       y2="0"
       gradientUnits="userSpaceOnUse"
       gradientTransform="matrix(174.69228,0,0,-174.69228,172.9095,241.17969)"
       spreadMethod="pad"
       id="linearGradient158"><stop
         style="stop-opacity:1;stop-color:#ffffff"
         offset="0"
         id="stop154" /><stop
         style="stop-opacity:1;stop-color:#e6f5ff"
         offset="1"
         id="stop156" /></linearGradient><linearGradient
       x1="0"
       y1="0"
       x2="1"
       y2="0"
       gradientUnits="userSpaceOnUse"
       gradientTransform="matrix(142.64932,0,0,-142.64932,188.95168,241.18001)"
       spreadMethod="pad"
       id="linearGradient178"><stop
         style="stop-opacity:1;stop-color:#00cde2"
         offset="0"
         id="stop174" /><stop
         style="stop-opacity:1;stop-color:#0078c1"
         offset="1"
         id="stop176" /></linearGradient><clipPath
       clipPathUnits="userSpaceOnUse"
       id="clipPath188"><path
         d="M 0,512 H 512 V 0 H 0 Z"
         id="path186" /></clipPath></defs><sodipodi:namedview
     id="namedview4"
     pagecolor="#ffffff"
     bordercolor="#666666"
     borderopacity="1.0"
     inkscape:pageshadow="2"
     inkscape:pageopacity="0.0"
     inkscape:pagecheckerboard="0" /><g
     id="g8"
     inkscape:groupmode="layer"
     inkscape:label="d44e85985f9c8de655e4623c05d23336"
     transform="matrix(1.3333333,0,0,-1.3333333,-5.8253332,677.16212)"><g
       id="g10"><g
         id="g12"><g
           id="g18"><g
             id="g20"><path
               d="m 94.871,507.747 c -49.834,0 -90.377,-40.544 -90.377,-90.378 v 0 V 94.28 C 4.494,44.446 45.037,3.902 94.871,3.902 v 0 h 323.088 c 49.835,0 90.378,40.544 90.378,90.378 v 0 323.089 c 0,49.834 -40.543,90.378 -90.378,90.378 v 0 z"
               style="fill:url(#radialGradient30);stroke:none"
               id="path32" /></g></g></g></g><g
       id="g34"><g
         id="g36"
         clip-path="url(#clipPath40)"><g
           id="g42"
           transform="translate(417.959,507.8716)"><path
             d="m 0,0 h -323.087 c -49.984,0 -90.503,-40.52 -90.503,-90.503 v -323.088 c 0,-49.984 40.519,-90.503 90.503,-90.503 H 0 c 49.983,0 90.503,40.519 90.503,90.503 V -90.503 C 90.503,-40.52 49.983,0 0,0 m 0,-0.25 c 49.766,0 90.253,-40.487 90.253,-90.253 v -323.088 c 0,-49.766 -40.487,-90.253 -90.253,-90.253 h -323.087 c -49.766,0 -90.253,40.487 -90.253,90.253 v 323.088 c 0,49.766 40.487,90.253 90.253,90.253 L 0,-0.25"
             style="fill:#006993;fill-opacity:1;fill-rule:nonzero;stroke:none"
             id="path44" /></g><g
           id="g46"
           transform="translate(410.4531,15.4883)"><path
             d="m 0,0 h -308.076 c -47.661,0 -86.298,38.637 -86.298,86.298 v 308.077 c 0,47.661 38.637,86.297 86.298,86.297 H 0 c 47.661,0 86.298,-38.636 86.298,-86.297 V 86.298 C 86.298,38.637 47.661,0 0,0"
             style="fill:#d4edff;fill-opacity:1;fill-rule:nonzero;stroke:none"
             id="path48" /></g></g></g><g
       id="g50"><g
         id="g52"><g
           id="g58"><g
             id="g60"><path
               d="m 103.589,479.63 c -39.2,0 -70.978,-31.779 -70.978,-70.979 v 0 -305.653 c 0,-39.2 31.778,-70.979 70.978,-70.979 v 0 h 305.652 c 39.201,0 70.978,31.779 70.978,70.979 v 0 305.653 c 0,39.2 -31.777,70.979 -70.978,70.979 v 0 z"
               style="fill:url(#linearGradient66);stroke:none"
               id="path68" /></g></g></g></g><g
       id="g70"><g
         id="g72"
         clip-path="url(#clipPath76)"><g
           id="g78"><g
             id="g80" /><g
             id="g108"><g
               clip-path="url(#clipPath84)"
               opacity="0.5"
               id="g106"><g
                 transform="translate(137.8047,182.2061)"
                 id="g88"><path
                   d="m 0,0 c -20.021,0 -36.31,16.288 -36.31,36.31 0,20.02 16.289,36.308 36.31,36.308 h 10.981 l 0.008,0.116 c 2.575,35.161 32.239,62.703 67.533,62.703 h 5.666 l 0.038,0.049 c 16.056,21.127 40.461,33.244 66.956,33.244 46.346,0 84.051,-37.705 84.051,-84.051 0,-3.957 -0.284,-7.967 -0.845,-11.918 l -0.02,-0.143 h 6.853 C 261.242,72.618 277.53,56.33 277.53,36.31 277.53,16.288 261.242,0 241.221,0 Z"
                   style="fill:#002a4f;fill-opacity:1;fill-rule:nonzero;stroke:none"
                   id="path86" /></g><g
                 transform="translate(288.9863,351.0615)"
                 id="g92"><path
                   d="m 0,0 c -27.368,0 -51.682,-13.064 -67.055,-33.293 h -5.604 c -35.779,0 -65.086,-27.697 -67.658,-62.818 h -10.865 c -20.122,0 -36.434,-16.313 -36.434,-36.435 0,-20.122 16.312,-36.434 36.434,-36.434 h 78.523 84.176 78.522 c 20.122,0 36.435,16.312 36.435,36.434 0,20.122 -16.313,36.435 -36.435,36.435 H 83.33 c 0.554,3.899 0.847,7.882 0.847,11.935 C 84.177,-37.687 46.489,0 0,0 m 0,-0.25 c 46.277,0 83.927,-37.649 83.927,-83.926 0,-3.953 -0.284,-7.957 -0.844,-11.9 l -0.041,-0.285 h 0.288 6.709 c 19.952,0 36.185,-16.233 36.185,-36.185 0,-19.952 -16.233,-36.184 -36.185,-36.184 h -78.522 -84.176 -78.523 c -19.952,0 -36.184,16.232 -36.184,36.184 0,19.952 16.232,36.185 36.184,36.185 h 10.865 0.232 l 0.017,0.231 c 1.244,16.982 8.807,32.756 21.298,44.415 12.553,11.718 28.929,18.172 46.111,18.172 h 5.604 0.124 l 0.075,0.098 c 7.668,10.09 17.676,18.445 28.944,24.161 11.814,5.994 24.57,9.034 37.912,9.034"
                   style="fill:#002a4f;fill-opacity:1;fill-rule:nonzero;stroke:none"
                   id="path90" /></g><g
                 transform="translate(211.1606,153.0869)"
                 id="g96"><path
                   d="m 0,0 c -1.531,0 -3.066,0.161 -4.564,0.479 -18.82,3.983 -22.718,5.641 -26.349,9.273 -6.015,6.011 -6.003,13.626 -4.501,30.854 0.465,5.345 2.802,10.391 6.58,14.207 l 41.273,41.696 c -0.89,4.603 -1.266,9.308 -1.121,14.071 1.035,33.931 28.437,60.987 62.385,61.595 0.388,0.007 0.774,0.011 1.161,0.011 17.511,0 33.826,-6.97 45.936,-19.624 12.106,-12.65 18.348,-29.271 17.577,-46.802 C 136.943,73.133 110.256,46.484 77.622,45.093 76.699,45.054 75.781,45.034 74.866,45.034 h -0.002 c -3.823,0 -7.612,0.338 -11.335,1.011 L 46.88,30.139 43.689,30.002 V 29.131 L 27.977,15.934 27.142,16.061 14.171,5.164 C 10.207,1.834 5.174,0 0,0"
                   style="fill:#002a4f;fill-opacity:1;fill-rule:nonzero;stroke:none"
                   id="path94" /></g><g
                 transform="translate(285.1504,309.2646)"
                 id="g100"><path
                   d="m 0,0 c -25.23,-0.452 -45.91,-20.863 -46.679,-46.085 -0.196,-6.44 0.891,-12.602 3.02,-18.252 l -47.794,-48.284 c -1.156,-1.168 -1.869,-2.702 -2.011,-4.34 -0.459,-5.261 -1.328,-16.948 -0.122,-18.153 1.186,-1.187 12.822,-3.763 18.348,-4.933 1.817,-0.385 3.706,0.09 5.128,1.284 l 11.14,9.359 v 7.315 l 8.209,-1.249 4.461,3.747 v 8.744 l 12.49,0.535 18.745,17.908 C -9.469,-94.395 -3.39,-95.37 2.95,-95.1 27.456,-94.055 47.326,-74.219 48.403,-49.715 49.614,-22.169 27.391,0.492 0,0"
                   style="fill:#002a4f;fill-opacity:1;fill-rule:nonzero;stroke:none"
                   id="path98" /></g><g
                 transform="translate(308.5127,275.5239)"
                 id="g104"><path
                   d="m 0,0 c 0,-6.532 -5.295,-11.827 -11.826,-11.827 -6.532,0 -11.827,5.295 -11.827,11.827 0,6.532 5.295,11.827 11.827,11.827 C -5.295,11.827 0,6.532 0,0"
                   style="fill:#002a4f;fill-opacity:1;fill-rule:nonzero;stroke:none"
                   id="path102" /></g></g></g></g></g></g><g
       id="g110"><g
         id="g112"><g
           id="g118"><g
             id="g120"><path
               d="m 220.031,319.693 -0.038,-0.05 h -5.666 c -35.294,0 -64.959,-27.542 -67.533,-62.703 v 0 l -0.009,-0.115 h -10.98 c -20.021,0 -36.31,-16.289 -36.31,-36.31 v 0 c 0,-20.021 16.289,-36.309 36.31,-36.309 v 0 h 241.22 c 20.022,0 36.31,16.288 36.31,36.309 v 0 c 0,20.021 -16.288,36.31 -36.31,36.31 v 0 h -6.852 l 0.02,0.142 c 0.561,3.951 0.845,7.961 0.845,11.918 v 0 c 0,46.346 -37.705,84.052 -84.051,84.052 v 0 c -26.496,0 -50.9,-12.118 -66.956,-33.244"
               style="fill:url(#linearGradient126);stroke:none"
               id="path128" /></g></g></g></g><g
       id="g130"><g
         id="g132"
         clip-path="url(#clipPath136)"><g
           id="g138"
           transform="translate(286.9863,353.0615)"><path
             d="m 0,0 c -27.368,0 -51.682,-13.064 -67.055,-33.293 h -5.604 c -35.779,0 -65.086,-27.697 -67.658,-62.819 h -10.865 c -20.122,0 -36.434,-16.312 -36.434,-36.434 0,-20.122 16.312,-36.434 36.434,-36.434 h 78.523 84.176 78.522 c 20.122,0 36.435,16.312 36.435,36.434 0,20.122 -16.313,36.434 -36.435,36.434 H 83.33 c 0.554,3.9 0.847,7.883 0.847,11.936 C 84.177,-37.687 46.489,0 0,0 m 0,-0.25 c 46.277,0 83.927,-37.649 83.927,-83.926 0,-3.953 -0.284,-7.957 -0.844,-11.901 l -0.041,-0.285 h 0.288 6.709 c 19.952,0 36.185,-16.232 36.185,-36.184 0,-19.952 -16.233,-36.184 -36.185,-36.184 h -78.522 -84.176 -78.523 c -19.952,0 -36.184,16.232 -36.184,36.184 0,19.952 16.232,36.184 36.184,36.184 h 10.865 0.232 l 0.017,0.232 c 1.244,16.982 8.807,32.756 21.298,44.415 12.553,11.718 28.929,18.172 46.111,18.172 h 5.604 0.124 l 0.075,0.098 c 7.668,10.09 17.676,18.445 28.944,24.161 11.814,5.994 24.57,9.034 37.912,9.034"
             style="fill:#006993;fill-opacity:1;fill-rule:nonzero;stroke:none"
             id="path140" /></g></g></g><g
       id="g142"><g
         id="g144"><g
           id="g150"><g
             id="g152"><path
               d="m 282.864,327.262 c -33.948,-0.608 -61.351,-27.665 -62.386,-61.595 v 0 c -0.145,-4.762 0.232,-9.468 1.122,-14.071 v 0 l -41.273,-41.695 c -3.779,-3.817 -6.115,-8.863 -6.58,-14.208 v 0 c -1.502,-17.228 -1.515,-24.843 4.501,-30.854 v 0 c 3.63,-3.632 7.529,-5.291 26.349,-9.274 v 0 c 1.498,-0.317 3.033,-0.478 4.564,-0.478 v 0 c 5.173,0 10.206,1.834 14.171,5.164 v 0 l 12.971,10.897 0.834,-0.127 15.713,13.196 v 0.872 l 3.19,0.136 16.649,15.907 c 3.724,-0.673 7.512,-1.011 11.336,-1.011 v 0 h 0.001 c 0.916,0 1.834,0.019 2.756,0.059 v 0 c 32.635,1.391 59.321,28.039 60.756,60.667 v 0 c 0.771,17.531 -5.471,34.152 -17.577,46.802 v 0 c -12.111,12.654 -28.425,19.623 -45.936,19.623 v 0 c -0.387,0 -0.773,-0.003 -1.161,-0.01"
               style="fill:url(#linearGradient158);stroke:none"
               id="path160" /></g></g></g></g><g
       id="g162"><g
         id="g164"><g
           id="g170"><g
             id="g172"><path
               d="M 283.151,311.265 C 257.92,310.812 237.24,290.402 236.471,265.18 v 0 c -0.196,-6.441 0.891,-12.602 3.021,-18.252 v 0 l -47.795,-48.285 c -1.156,-1.168 -1.868,-2.701 -2.011,-4.339 v 0 c -0.458,-5.261 -1.328,-16.948 -0.122,-18.153 v 0 c 1.186,-1.187 12.823,-3.763 18.349,-4.933 v 0 c 1.816,-0.385 3.706,0.09 5.128,1.284 v 0 l 11.14,9.358 v 7.315 l 8.208,-1.248 4.461,3.747 v 8.744 l 12.49,0.535 18.745,17.907 c 5.597,-1.99 11.675,-2.965 18.016,-2.695 v 0 c 24.505,1.045 44.375,20.881 45.453,45.385 v 0 c 1.197,27.251 -20.543,49.722 -47.529,49.723 v 0 c -0.292,0 -0.582,-0.003 -0.874,-0.008"
               style="fill:url(#linearGradient178);stroke:none"
               id="path180" /></g></g></g></g><g
       id="g182"><g
         id="g184"
         clip-path="url(#clipPath188)"><g
           id="g190"
           transform="translate(306.5127,277.5239)"><path
             d="m 0,0 c 0,-6.532 -5.295,-11.827 -11.826,-11.827 -6.532,0 -11.827,5.295 -11.827,11.827 0,6.532 5.295,11.827 11.827,11.827 C -5.295,11.827 0,6.532 0,0"
             style="fill:#ffffff;fill-opacity:1;fill-rule:nonzero;stroke:none"
             id="path192" /></g></g></g></g></svg>
