<?xml version="1.0" encoding="UTF-8" standalone="no"?>
<!-- Created with Inkscape (http://www.inkscape.org/) -->

<svg
   version="1.1"
   id="svg2"
   xml:space="preserve"
   width="672.12531"
   height="672.12531"
   viewBox="0 0 672.12531 672.12531"
   sodipodi:docname="a1b5e17aa166df88ecf0d45912194c58.ai"
   xmlns:inkscape="http://www.inkscape.org/namespaces/inkscape"
   xmlns:sodipodi="http://sodipodi.sourceforge.net/DTD/sodipodi-0.dtd"
   xmlns="http://www.w3.org/2000/svg"
   xmlns:svg="http://www.w3.org/2000/svg"><defs
     id="defs6"><radialGradient
       fx="0"
       fy="0"
       cx="0"
       cy="0"
       r="1"
       gradientUnits="userSpaceOnUse"
       gradientTransform="matrix(312.44208,-2.7626991,-2.7626991,-312.44208,256,256)"
       spreadMethod="pad"
       id="radialGradient30"><stop
         style="stop-opacity:1;stop-color:#0069b7"
         offset="0"
         id="stop22" /><stop
         style="stop-opacity:1;stop-color:#0069b7"
         offset="0.681454"
         id="stop24" /><stop
         style="stop-opacity:1;stop-color:#00578c"
         offset="0.907179"
         id="stop26" /><stop
         style="stop-opacity:1;stop-color:#00578c"
         offset="1"
         id="stop28" /></radialGradient><clipPath
       clipPathUnits="userSpaceOnUse"
       id="clipPath40"><path
         d="M 0,512 H 512 V 0 H 0 Z"
         id="path38" /></clipPath><linearGradient
       x1="0"
       y1="0"
       x2="1"
       y2="0"
       gradientUnits="userSpaceOnUse"
       gradientTransform="matrix(447.60992,0,0,-447.60992,32.195034,256)"
       spreadMethod="pad"
       id="linearGradient66"><stop
         style="stop-opacity:1;stop-color:#ffffff"
         offset="0"
         id="stop62" /><stop
         style="stop-opacity:1;stop-color:#e6f5ff"
         offset="1"
         id="stop64" /></linearGradient><clipPath
       clipPathUnits="userSpaceOnUse"
       id="clipPath76"><path
         d="M 0,512 H 512 V 0 H 0 Z"
         id="path74" /></clipPath><clipPath
       clipPathUnits="userSpaceOnUse"
       id="clipPath84"><path
         d="M 67.2917,393.242 H 448.708 V 114.758 H 67.2917 Z"
         id="path82" /></clipPath><radialGradient
       fx="0"
       fy="0"
       cx="0"
       cy="0"
       r="1"
       gradientUnits="userSpaceOnUse"
       gradientTransform="matrix(182.99606,0,0,-91.302757,256,321.33469)"
       spreadMethod="pad"
       id="radialGradient148"><stop
         style="stop-opacity:1;stop-color:#003582"
         offset="0"
         id="stop144" /><stop
         style="stop-opacity:1;stop-color:#0067bc"
         offset="1"
         id="stop146" /></radialGradient><radialGradient
       fx="0.036558501"
       fy="-0.25232899"
       cx="0"
       cy="0"
       r="1"
       gradientUnits="userSpaceOnUse"
       gradientTransform="matrix(-98.202469,-10.770988,-10.770988,98.202469,255.99998,174.92966)"
       spreadMethod="pad"
       id="radialGradient168"><stop
         style="stop-opacity:1;stop-color:#ffddb0"
         offset="0"
         id="stop164" /><stop
         style="stop-opacity:1;stop-color:#fca468"
         offset="1"
         id="stop166" /></radialGradient><radialGradient
       fx="0"
       fy="0"
       cx="0"
       cy="0"
       r="1"
       gradientUnits="userSpaceOnUse"
       gradientTransform="matrix(130.2663,0,0,-53.537632,256.15225,267.83017)"
       spreadMethod="pad"
       id="radialGradient188"><stop
         style="stop-opacity:1;stop-color:#0067bc"
         offset="0"
         id="stop184" /><stop
         style="stop-opacity:1;stop-color:#003582"
         offset="1"
         id="stop186" /></radialGradient><linearGradient
       x1="0"
       y1="0"
       x2="1"
       y2="0"
       gradientUnits="userSpaceOnUse"
       gradientTransform="matrix(0,69.669273,69.669273,0,101.57699,201.66312)"
       spreadMethod="pad"
       id="linearGradient208"><stop
         style="stop-opacity:1;stop-color:#003582"
         offset="0"
         id="stop204" /><stop
         style="stop-opacity:1;stop-color:#0060b4"
         offset="1"
         id="stop206" /></linearGradient><linearGradient
       x1="0"
       y1="0"
       x2="1"
       y2="0"
       gradientUnits="userSpaceOnUse"
       gradientTransform="matrix(0,25.175714,25.175714,0,101.57699,207.06294)"
       spreadMethod="pad"
       id="linearGradient228"><stop
         style="stop-opacity:1;stop-color:#00cde2"
         offset="0"
         id="stop224" /><stop
         style="stop-opacity:1;stop-color:#0078c1"
         offset="1"
         id="stop226" /></linearGradient><radialGradient
       fx="0"
       fy="0"
       cx="0"
       cy="0"
       r="1"
       gradientUnits="userSpaceOnUse"
       gradientTransform="matrix(8.635148,0,0,-8.635148,101.57699,233.15082)"
       spreadMethod="pad"
       id="radialGradient248"><stop
         style="stop-opacity:1;stop-color:#00cde2"
         offset="0"
         id="stop244" /><stop
         style="stop-opacity:1;stop-color:#0078c1"
         offset="1"
         id="stop246" /></radialGradient><clipPath
       clipPathUnits="userSpaceOnUse"
       id="clipPath258"><path
         d="M 0,512 H 512 V 0 H 0 Z"
         id="path256" /></clipPath></defs><sodipodi:namedview
     id="namedview4"
     pagecolor="#ffffff"
     bordercolor="#666666"
     borderopacity="1.0"
     inkscape:pageshadow="2"
     inkscape:pageopacity="0.0"
     inkscape:pagecheckerboard="0" /><g
     id="g8"
     inkscape:groupmode="layer"
     inkscape:label="a1b5e17aa166df88ecf0d45912194c58"
     transform="matrix(1.3333333,0,0,-1.3333333,-5.2705332,677.39585)"><g
       id="g10"><g
         id="g12"><g
           id="g18"><g
             id="g20"><path
               d="m 94.456,507.922 c -49.834,0 -90.378,-40.544 -90.378,-90.378 v 0 V 94.456 C 4.078,44.621 44.622,4.078 94.456,4.078 v 0 h 323.088 c 49.835,0 90.378,40.543 90.378,90.378 v 0 323.088 c 0,49.834 -40.543,90.378 -90.378,90.378 v 0 z"
               style="fill:url(#radialGradient30);stroke:none"
               id="path32" /></g></g></g></g><g
       id="g34"><g
         id="g36"
         clip-path="url(#clipPath40)"><g
           id="g42"
           transform="translate(417.5439,508.0469)"><path
             d="m 0,0 h -323.088 c -49.983,0 -90.503,-40.52 -90.503,-90.503 v -323.088 c 0,-49.983 40.52,-90.503 90.503,-90.503 H 0 c 49.983,0 90.503,40.52 90.503,90.503 V -90.503 C 90.503,-40.52 49.983,0 0,0 m 0,-0.25 c 49.766,0 90.253,-40.487 90.253,-90.253 v -323.088 c 0,-49.765 -40.487,-90.253 -90.253,-90.253 h -323.088 c -49.766,0 -90.253,40.488 -90.253,90.253 v 323.088 c 0,49.766 40.487,90.253 90.253,90.253 L 0,-0.25"
             style="fill:#006993;fill-opacity:1;fill-rule:nonzero;stroke:none"
             id="path44" /></g><g
           id="g46"
           transform="translate(410.0381,15.6641)"><path
             d="m 0,0 h -308.076 c -47.661,0 -86.298,38.637 -86.298,86.298 v 308.076 c 0,47.661 38.637,86.298 86.298,86.298 H 0 c 47.661,0 86.298,-38.637 86.298,-86.298 V 86.298 C 86.298,38.637 47.661,0 0,0"
             style="fill:#d4edff;fill-opacity:1;fill-rule:nonzero;stroke:none"
             id="path48" /></g></g></g><g
       id="g50"><g
         id="g52"><g
           id="g58"><g
             id="g60"><path
               d="m 103.174,479.805 c -39.201,0 -70.979,-31.778 -70.979,-70.979 v 0 -305.652 c 0,-39.2 31.778,-70.978 70.979,-70.978 v 0 h 305.652 c 39.2,0 70.978,31.778 70.978,70.978 v 0 305.652 c 0,39.201 -31.778,70.979 -70.978,70.979 v 0 z"
               style="fill:url(#linearGradient66);stroke:none"
               id="path68" /></g></g></g></g><g
       id="g70"><g
         id="g72"
         clip-path="url(#clipPath76)"><g
           id="g78"><g
             id="g80" /><g
             id="g130"><g
               clip-path="url(#clipPath84)"
               opacity="0.5"
               id="g128"><g
                 transform="translate(443.8711,296.8579)"
                 id="g88"><path
                   d="m 0,0 -185.151,95.263 c -2.939,1.512 -6.537,1.494 -9.458,-0.047 L -371.833,1.691 c -6.329,-3.339 -6.329,-11.66 0.001,-15 l 71.431,-37.688 V -8.62 c 0,0.5 0.03,0.999 0.091,1.495 0.563,4.605 4.135,13.304 21.737,19.815 18.87,6.979 50.359,10.518 93.589,10.518 43.27,0 74.546,-3.552 92.962,-10.558 17.718,-6.742 20.745,-15.858 20.972,-20.692 0.009,-0.193 0.013,-0.385 0.013,-0.578 v -42.811 l 71.016,36.327 C 6.447,-11.796 6.459,-3.323 0,0"
                   style="fill:#002a4f;fill-opacity:1;fill-rule:nonzero;stroke:none"
                   id="path86" /></g><g
                 transform="translate(352.4561,216.251)"
                 id="g92"><path
                   d="m 0,0 c -4.632,3.549 -9.784,6.357 -15.408,7.909 -12.071,3.331 -35.091,6.942 -78.161,6.942 -43.842,0 -67.275,-3.732 -79.556,-7.165 -5.618,-1.572 -10.771,-4.387 -15.457,-7.861 -0.986,-0.73 -1.941,-1.32 -2.87,-1.807 -0.021,-0.826 -0.032,-1.654 -0.032,-2.484 0,-53.587 43.441,-97.027 97.028,-97.027 53.587,0 97.027,43.44 97.027,97.027 0,0.92 -0.015,1.836 -0.041,2.75 C 1.712,-1.231 0.869,-0.666 0,0"
                   style="fill:#002a4f;fill-opacity:1;fill-rule:nonzero;stroke:none"
                   id="path90" /></g><g
                 transform="translate(258.8857,307.7446)"
                 id="g96"><path
                   d="m 0,0 c -100.71,0 -103.095,-19.506 -103.095,-19.506 v -64.323 c 0,0 2.385,19.506 103.095,19.506 100.711,0 101.628,-19.506 101.628,-19.506 v 64.323 C 101.628,-19.506 100.711,0 0,0"
                   style="fill:#002a4f;fill-opacity:1;fill-rule:nonzero;stroke:none"
                   id="path94" /></g><path
                 d="m 108.502,234.252 h -9.851 v 46.095 h 9.851 z"
                 style="fill:#002a4f;fill-opacity:1;fill-rule:nonzero;stroke:none"
                 id="path98" /><g
                 transform="translate(112.3945,205.0625)"
                 id="g102"><path
                   d="m 0,0 h -17.635 l 2.858,25.176 h 11.919 z"
                   style="fill:#002a4f;fill-opacity:1;fill-rule:nonzero;stroke:none"
                   id="path100" /></g><g
                 transform="translate(112.2119,231.1504)"
                 id="g106"><path
                   d="m 0,0 c 0,-4.769 -3.866,-8.635 -8.635,-8.635 -4.769,0 -8.635,3.866 -8.635,8.635 0,4.77 3.866,8.636 8.635,8.636 C -3.866,8.636 0,4.77 0,0"
                   style="fill:#002a4f;fill-opacity:1;fill-rule:nonzero;stroke:none"
                   id="path104" /></g><g
                 transform="translate(246.9673,278.1426)"
                 id="g110"><path
                   d="m 0,0 3.215,5.504 -14.262,0.004 1.013,-3.207 C -9.6,0.93 -8.342,0.002 -6.919,0.002 Z"
                   style="fill:#002a4f;fill-opacity:1;fill-rule:nonzero;stroke:none"
                   id="path108" /></g><g
                 transform="translate(274.8809,283.6382)"
                 id="g114"><path
                   d="m 0,0 -14.161,0.005 -3.214,-5.504 16.7,-0.007 c 0.19,0 0.241,-0.163 0.241,-0.249 0,-0.085 -0.039,-0.152 -0.118,-0.2 l -4.022,-2.418 0.002,-6.4 7.386,4.441 c 1.708,1.033 2.69,2.751 2.69,4.717 C 5.506,-2.857 3.447,-0.001 0,0"
                   style="fill:#002a4f;fill-opacity:1;fill-rule:nonzero;stroke:none"
                   id="path112" /></g><g
                 transform="translate(247.9487,261.7651)"
                 id="g118"><path
                   d="m 0,0 -5.217,-8.938 c -0.255,-0.532 0.093,-0.505 0.414,-0.356 0.272,0.165 0.528,0.32 0.729,0.443 L 13.234,1.601 13.232,8 Z"
                   style="fill:#002a4f;fill-opacity:1;fill-rule:nonzero;stroke:none"
                   id="path116" /></g><g
                 transform="translate(263.0293,276.2876)"
                 id="g122"><path
                   d="m 0,0 c 0,0 0.005,-16.231 0.005,-20.465 0,-1.439 1.057,-2.738 2.275,-3.149 0.79,-0.268 3.173,-1.026 3.173,-1.026 L 5.446,-0.001 Z"
                   style="fill:#002a4f;fill-opacity:1;fill-rule:nonzero;stroke:none"
                   id="path120" /></g><g
                 transform="translate(262.5791,290.4517)"
                 id="g126"><path
                   d="m 0,0 c 0.051,0.077 0.114,0.114 0.201,0.114 0.082,0 0.245,-0.051 0.245,-0.242 v -4.83 l 5.447,-0.007 -0.007,5.52 c 0,3.481 -2.824,5.564 -5.554,5.564 -1.945,0 -3.645,-0.991 -4.662,-2.721 l -19.585,-33.479 c -0.604,-1.032 -0.677,-2.292 -0.196,-3.386 l 1.952,-4.452 z"
                   style="fill:#002a4f;fill-opacity:1;fill-rule:nonzero;stroke:none"
                   id="path124" /></g></g></g></g></g></g><g
       id="g132"><g
         id="g134"><g
           id="g140"><g
             id="g142"><path
               d="M 247.262,394.074 70.038,300.55 c -6.329,-3.34 -6.329,-11.662 0.001,-15.001 v 0 l 71.431,-37.688 v 42.377 c 0,0.5 0.031,0.998 0.092,1.495 v 0 c 0.562,4.606 4.135,13.304 21.737,19.815 v 0 c 18.869,6.979 50.358,10.518 93.588,10.518 v 0 c 43.27,0 74.545,-3.552 92.962,-10.558 v 0 c 17.718,-6.742 20.745,-15.858 20.973,-20.692 v 0 c 0.008,-0.193 0.012,-0.385 0.012,-0.578 v 0 -42.811 l 71.016,36.327 c 6.468,3.308 6.481,11.781 0.021,15.104 v 0 L 256.72,394.121 c -1.454,0.748 -3.069,1.121 -4.684,1.121 v 0 c -1.649,0 -3.298,-0.389 -4.774,-1.168"
               style="fill:url(#radialGradient148);stroke:none"
               id="path150" /></g></g></g></g><g
       id="g152"><g
         id="g154"><g
           id="g160"><g
             id="g162"><path
               d="m 177.331,225.937 c -5.618,-1.572 -10.771,-4.388 -15.457,-7.861 v 0 c -0.986,-0.73 -1.941,-1.32 -2.87,-1.808 v 0 c -0.021,-0.824 -0.032,-1.653 -0.032,-2.483 v 0 c 0,-53.587 43.441,-97.027 97.028,-97.027 v 0 c 53.586,0 97.028,43.44 97.028,97.027 v 0 c 0,0.92 -0.016,1.836 -0.042,2.75 v 0 c -0.818,0.485 -1.661,1.05 -2.53,1.716 v 0 c -4.632,3.549 -9.784,6.358 -15.409,7.909 v 0 c -12.07,3.331 -35.09,6.942 -78.16,6.942 v 0 c -43.842,0 -67.275,-3.732 -79.556,-7.165"
               style="fill:url(#radialGradient168);stroke:none"
               id="path170" /></g></g></g></g><g
       id="g172"><g
         id="g174"><g
           id="g180"><g
             id="g182"><path
               d="m 153.79,290.238 v -64.322 c 0,0 2.385,19.506 103.096,19.506 v 0 c 100.711,0 101.628,-19.506 101.628,-19.506 v 0 64.322 c 0,0 -0.917,19.507 -101.628,19.507 v 0 c -100.711,0 -103.096,-19.507 -103.096,-19.507"
               style="fill:url(#radialGradient188);stroke:none"
               id="path190" /></g></g></g></g><g
       id="g192"><g
         id="g194"><g
           id="g200"><g
             id="g202"><path
               d="m 96.651,236.252 h 9.851 v 46.095 h -9.851 z"
               style="fill:url(#linearGradient208);stroke:none"
               id="path210" /></g></g></g></g><g
       id="g212"><g
         id="g214"><g
           id="g220"><g
             id="g222"><path
               d="m 95.618,232.239 -2.859,-25.177 h 17.636 l -2.859,25.177 z"
               style="fill:url(#linearGradient228);stroke:none"
               id="path230" /></g></g></g></g><g
       id="g232"><g
         id="g234"><g
           id="g240"><g
             id="g242"><path
               d="m 92.942,233.15 c 0,-4.768 3.867,-8.634 8.635,-8.634 v 0 c 4.769,0 8.635,3.866 8.635,8.634 v 0 c 0,4.769 -3.866,8.636 -8.635,8.636 v 0 c -4.768,0 -8.635,-3.867 -8.635,-8.636"
               style="fill:url(#radialGradient248);stroke:none"
               id="path250" /></g></g></g></g><g
       id="g252"><g
         id="g254"
         clip-path="url(#clipPath258)"><g
           id="g260"
           transform="translate(244.9673,280.1426)"><path
             d="m 0,0 3.215,5.504 -14.262,0.004 1.013,-3.207 C -9.6,0.93 -8.342,0.002 -6.919,0.002 Z"
             style="fill:#fdfeff;fill-opacity:1;fill-rule:nonzero;stroke:none"
             id="path262" /></g><g
           id="g264"
           transform="translate(272.8809,285.6382)"><path
             d="m 0,0 -14.161,0.005 -3.214,-5.504 16.7,-0.007 c 0.19,0 0.241,-0.163 0.241,-0.249 0,-0.085 -0.039,-0.152 -0.118,-0.2 l -4.022,-2.418 0.002,-6.4 7.386,4.441 c 1.708,1.033 2.69,2.751 2.69,4.717 C 5.506,-2.857 3.447,-0.001 0,0"
             style="fill:#fdfeff;fill-opacity:1;fill-rule:nonzero;stroke:none"
             id="path266" /></g><g
           id="g268"
           transform="translate(245.9487,263.7651)"><path
             d="m 0,0 -5.217,-8.938 c -0.255,-0.532 0.093,-0.505 0.414,-0.356 0.272,0.165 0.528,0.32 0.729,0.443 L 13.234,1.601 13.232,8 Z"
             style="fill:#fdfeff;fill-opacity:1;fill-rule:nonzero;stroke:none"
             id="path270" /></g><g
           id="g272"
           transform="translate(261.0293,278.2876)"><path
             d="m 0,0 c 0,0 0.005,-16.231 0.005,-20.465 0,-1.439 1.057,-2.738 2.275,-3.149 0.79,-0.268 3.173,-1.026 3.173,-1.026 L 5.446,-0.001 Z"
             style="fill:#fdfeff;fill-opacity:1;fill-rule:nonzero;stroke:none"
             id="path274" /></g><g
           id="g276"
           transform="translate(260.5791,292.4517)"><path
             d="m 0,0 c 0.051,0.077 0.114,0.114 0.201,0.114 0.082,0 0.245,-0.051 0.245,-0.242 v -4.83 l 5.447,-0.007 -0.007,5.52 c 0,3.481 -2.824,5.564 -5.554,5.564 -1.945,0 -3.645,-0.991 -4.663,-2.721 l -19.584,-33.479 c -0.604,-1.032 -0.677,-2.292 -0.196,-3.386 l 1.952,-4.452 z"
             style="fill:#fdfeff;fill-opacity:1;fill-rule:nonzero;stroke:none"
             id="path278" /></g></g></g></g></svg>
