<?xml version="1.0" encoding="UTF-8" standalone="no"?>
<!-- Created with Inkscape (http://www.inkscape.org/) -->

<svg
   version="1.1"
   id="svg2"
   xml:space="preserve"
   width="672.12531"
   height="672.12531"
   viewBox="0 0 672.12531 672.12531"
   sodipodi:docname="5abf513d2efa5d7db8c0336349063b50.ai"
   xmlns:inkscape="http://www.inkscape.org/namespaces/inkscape"
   xmlns:sodipodi="http://sodipodi.sourceforge.net/DTD/sodipodi-0.dtd"
   xmlns="http://www.w3.org/2000/svg"
   xmlns:svg="http://www.w3.org/2000/svg"><defs
     id="defs6"><radialGradient
       fx="0"
       fy="0"
       cx="0"
       cy="0"
       r="1"
       gradientUnits="userSpaceOnUse"
       gradientTransform="matrix(312.44208,-2.7626991,-2.7626991,-312.44208,256,256)"
       spreadMethod="pad"
       id="radialGradient30"><stop
         style="stop-opacity:1;stop-color:#0069b7"
         offset="0"
         id="stop22" /><stop
         style="stop-opacity:1;stop-color:#0069b7"
         offset="0.681454"
         id="stop24" /><stop
         style="stop-opacity:1;stop-color:#00578c"
         offset="0.907179"
         id="stop26" /><stop
         style="stop-opacity:1;stop-color:#00578c"
         offset="1"
         id="stop28" /></radialGradient><clipPath
       clipPathUnits="userSpaceOnUse"
       id="clipPath40"><path
         d="M 0,512 H 512 V 0 H 0 Z"
         id="path38" /></clipPath><linearGradient
       x1="0"
       y1="0"
       x2="1"
       y2="0"
       gradientUnits="userSpaceOnUse"
       gradientTransform="matrix(447.60992,0,0,-447.60992,32.195034,256)"
       spreadMethod="pad"
       id="linearGradient66"><stop
         style="stop-opacity:1;stop-color:#ffffff"
         offset="0"
         id="stop62" /><stop
         style="stop-opacity:1;stop-color:#e6f5ff"
         offset="1"
         id="stop64" /></linearGradient><clipPath
       clipPathUnits="userSpaceOnUse"
       id="clipPath76"><path
         d="M 0,512 H 512 V 0 H 0 Z"
         id="path74" /></clipPath><clipPath
       clipPathUnits="userSpaceOnUse"
       id="clipPath84"><path
         d="M 105.223,429.059 H 410.777 V 86.941 H 105.223 Z"
         id="path82" /></clipPath><linearGradient
       x1="0"
       y1="0"
       x2="1"
       y2="0"
       gradientUnits="userSpaceOnUse"
       gradientTransform="matrix(232.24902,0,0,-232.24902,176.40234,262.43188)"
       spreadMethod="pad"
       id="linearGradient198"><stop
         style="stop-opacity:1;stop-color:#0069b7"
         offset="0"
         id="stop194" /><stop
         style="stop-opacity:1;stop-color:#00578c"
         offset="1"
         id="stop196" /></linearGradient><clipPath
       clipPathUnits="userSpaceOnUse"
       id="clipPath208"><path
         d="M 0,512 H 512 V 0 H 0 Z"
         id="path206" /></clipPath><linearGradient
       x1="0"
       y1="0"
       x2="1"
       y2="0"
       gradientUnits="userSpaceOnUse"
       gradientTransform="matrix(109.4922,-46.658531,-46.658531,-109.4922,242.16307,428.70743)"
       spreadMethod="pad"
       id="linearGradient234"><stop
         style="stop-opacity:1;stop-color:#00cde2"
         offset="0"
         id="stop230" /><stop
         style="stop-opacity:1;stop-color:#0078c1"
         offset="1"
         id="stop232" /></linearGradient><linearGradient
       x1="0"
       y1="0"
       x2="1"
       y2="0"
       gradientUnits="userSpaceOnUse"
       gradientTransform="matrix(124.86938,0,0,-124.86938,250.35721,347.01871)"
       spreadMethod="pad"
       id="linearGradient254"><stop
         style="stop-opacity:1;stop-color:#ffffff"
         offset="0"
         id="stop250" /><stop
         style="stop-opacity:1;stop-color:#e6f5ff"
         offset="1"
         id="stop252" /></linearGradient><linearGradient
       x1="0"
       y1="0"
       x2="1"
       y2="0"
       gradientUnits="userSpaceOnUse"
       gradientTransform="matrix(18.444456,0,0,-18.444456,212.12244,347.01871)"
       spreadMethod="pad"
       id="linearGradient274"><stop
         style="stop-opacity:1;stop-color:#ffffff"
         offset="0"
         id="stop270" /><stop
         style="stop-opacity:1;stop-color:#e6f5ff"
         offset="1"
         id="stop272" /></linearGradient><linearGradient
       x1="0"
       y1="0"
       x2="1"
       y2="0"
       gradientUnits="userSpaceOnUse"
       gradientTransform="matrix(18.444456,0,0,-18.444456,212.12244,311.8237)"
       spreadMethod="pad"
       id="linearGradient294"><stop
         style="stop-opacity:1;stop-color:#ffffff"
         offset="0"
         id="stop290" /><stop
         style="stop-opacity:1;stop-color:#e6f5ff"
         offset="1"
         id="stop292" /></linearGradient><linearGradient
       x1="0"
       y1="0"
       x2="1"
       y2="0"
       gradientUnits="userSpaceOnUse"
       gradientTransform="matrix(107.23372,0,0,-107.23372,250.35721,311.8237)"
       spreadMethod="pad"
       id="linearGradient314"><stop
         style="stop-opacity:1;stop-color:#ffffff"
         offset="0"
         id="stop310" /><stop
         style="stop-opacity:1;stop-color:#e6f5ff"
         offset="1"
         id="stop312" /></linearGradient><clipPath
       clipPathUnits="userSpaceOnUse"
       id="clipPath324"><path
         d="M 0,512 H 512 V 0 H 0 Z"
         id="path322" /></clipPath><linearGradient
       x1="0"
       y1="0"
       x2="1"
       y2="0"
       gradientUnits="userSpaceOnUse"
       gradientTransform="matrix(149.89113,0,0,-149.89113,114.81013,175.47357)"
       spreadMethod="pad"
       id="linearGradient366"><stop
         style="stop-opacity:1;stop-color:#aef4ff"
         offset="0"
         id="stop362" /><stop
         style="stop-opacity:1;stop-color:#00cde2"
         offset="1"
         id="stop364" /></linearGradient><clipPath
       clipPathUnits="userSpaceOnUse"
       id="clipPath376"><path
         d="M 0,512 H 512 V 0 H 0 Z"
         id="path374" /></clipPath></defs><sodipodi:namedview
     id="namedview4"
     pagecolor="#ffffff"
     bordercolor="#666666"
     borderopacity="1.0"
     inkscape:pageshadow="2"
     inkscape:pageopacity="0.0"
     inkscape:pagecheckerboard="0" /><g
     id="g8"
     inkscape:groupmode="layer"
     inkscape:label="5abf513d2efa5d7db8c0336349063b50"
     transform="matrix(1.3333333,0,0,-1.3333333,-5.2705332,677.39585)"><g
       id="g10"><g
         id="g12"><g
           id="g18"><g
             id="g20"><path
               d="m 94.456,507.922 c -49.834,0 -90.378,-40.544 -90.378,-90.378 v 0 V 94.456 C 4.078,44.621 44.622,4.078 94.456,4.078 v 0 h 323.088 c 49.835,0 90.378,40.543 90.378,90.378 v 0 323.088 c 0,49.834 -40.543,90.378 -90.378,90.378 v 0 z"
               style="fill:url(#radialGradient30);stroke:none"
               id="path32" /></g></g></g></g><g
       id="g34"><g
         id="g36"
         clip-path="url(#clipPath40)"><g
           id="g42"
           transform="translate(417.5439,508.0469)"><path
             d="m 0,0 h -323.088 c -49.983,0 -90.503,-40.52 -90.503,-90.503 v -323.088 c 0,-49.983 40.52,-90.503 90.503,-90.503 H 0 c 49.983,0 90.503,40.52 90.503,90.503 V -90.503 C 90.503,-40.52 49.983,0 0,0 m 0,-0.25 c 49.766,0 90.253,-40.487 90.253,-90.253 v -323.088 c 0,-49.765 -40.487,-90.253 -90.253,-90.253 h -323.088 c -49.766,0 -90.253,40.488 -90.253,90.253 v 323.088 c 0,49.766 40.487,90.253 90.253,90.253 L 0,-0.25"
             style="fill:#006993;fill-opacity:1;fill-rule:nonzero;stroke:none"
             id="path44" /></g><g
           id="g46"
           transform="translate(410.0381,15.6641)"><path
             d="m 0,0 h -308.076 c -47.661,0 -86.298,38.637 -86.298,86.298 v 308.076 c 0,47.661 38.637,86.298 86.298,86.298 H 0 c 47.661,0 86.298,-38.637 86.298,-86.298 V 86.298 C 86.298,38.637 47.661,0 0,0"
             style="fill:#d4edff;fill-opacity:1;fill-rule:nonzero;stroke:none"
             id="path48" /></g></g></g><g
       id="g50"><g
         id="g52"><g
           id="g58"><g
             id="g60"><path
               d="m 103.174,479.805 c -39.201,0 -70.979,-31.778 -70.979,-70.979 v 0 -305.652 c 0,-39.2 31.778,-70.978 70.979,-70.978 v 0 h 305.652 c 39.2,0 70.978,31.778 70.978,70.978 v 0 305.652 c 0,39.201 -31.778,70.979 -70.978,70.979 v 0 z"
               style="fill:url(#linearGradient66);stroke:none"
               id="path68" /></g></g></g></g><g
       id="g70"><g
         id="g72"
         clip-path="url(#clipPath76)"><g
           id="g78"><g
             id="g80" /><g
             id="g180"><g
               clip-path="url(#clipPath84)"
               opacity="0.5"
               id="g178"><g
                 transform="translate(191.9536,114.8174)"
                 id="g88"><path
                   d="m 0,0 c -7.472,0 -13.551,6.079 -13.551,13.552 v 264.125 c 0,7.473 6.079,13.552 13.551,13.552 h 205.147 c 7.472,0 13.551,-6.079 13.551,-13.552 V 13.552 C 218.698,6.079 212.619,0 205.147,0 Z"
                   style="fill:#002a4f;fill-opacity:1;fill-rule:nonzero;stroke:none"
                   id="path86" /></g><g
                 transform="translate(397.1006,406.1714)"
                 id="g92"><path
                   d="m 0,0 h -205.147 c -7.553,0 -13.676,-6.123 -13.676,-13.677 v -264.125 c 0,-7.554 6.123,-13.677 13.676,-13.677 H 0 c 7.553,0 13.677,6.123 13.677,13.677 V -13.677 C 13.677,-6.123 7.553,0 0,0 m 0,-0.25 c 7.403,0 13.427,-6.023 13.427,-13.427 v -264.125 c 0,-7.405 -6.024,-13.427 -13.427,-13.427 h -205.147 c -7.403,0 -13.426,6.022 -13.426,13.427 v 264.125 c 0,7.404 6.023,13.427 13.426,13.427 L 0,-0.25"
                   style="fill:#002a4f;fill-opacity:1;fill-rule:nonzero;stroke:none"
                   id="path90" /></g><g
                 transform="translate(238.479,381.4321)"
                 id="g96"><path
                   d="M 0,0 C -6.185,0 -11.217,5.032 -11.217,11.217 V 36.41 c 0,6.185 5.032,11.217 11.217,11.217 h 112.096 c 6.185,0 11.217,-5.032 11.217,-11.217 V 11.217 C 123.313,5.032 118.281,0 112.096,0 Z"
                   style="fill:#002a4f;fill-opacity:1;fill-rule:nonzero;stroke:none"
                   id="path94" /></g><g
                 transform="translate(350.5752,389.4321)"
                 id="g100"><path
                   d="m 0,0 h -112.096 c -1.777,0 -3.217,1.44 -3.217,3.217 V 28.41 c 0,1.777 1.44,3.217 3.217,3.217 H 0 c 1.776,0 3.217,-1.44 3.217,-3.217 V 3.217 C 3.217,1.44 1.776,0 0,0"
                   style="fill:#002a4f;fill-opacity:1;fill-rule:nonzero;stroke:none"
                   id="path98" /></g><g
                 transform="translate(372.8154,339.2769)"
                 id="g104"><path
                   d="m 0,0 h -116.047 c -2.436,0 -4.411,1.975 -4.411,4.411 v 2.661 c 0,2.437 1.975,4.411 4.411,4.411 L 0,11.483 c 2.437,0 4.411,-1.974 4.411,-4.411 V 4.411 C 4.411,1.975 2.437,0 0,0"
                   style="fill:#002a4f;fill-opacity:1;fill-rule:nonzero;stroke:none"
                   id="path102" /></g><g
                 transform="translate(230.334,335.353)"
                 id="g108"><path
                   d="m 0,0 h -13.979 c -1.233,0 -2.232,1 -2.232,2.232 v 14.867 c 0,1.233 0.999,2.233 2.232,2.233 H 0 c 1.233,0 2.233,-1 2.233,-2.233 V 2.232 C 2.233,1 1.233,0 0,0"
                   style="fill:#002a4f;fill-opacity:1;fill-rule:nonzero;stroke:none"
                   id="path106" /></g><g
                 transform="translate(230.334,300.1577)"
                 id="g112"><path
                   d="m 0,0 h -13.979 c -1.233,0 -2.232,1 -2.232,2.233 v 14.866 c 0,1.233 0.999,2.233 2.232,2.233 H 0 c 1.233,0 2.233,-1 2.233,-2.233 V 2.233 C 2.233,1 1.233,0 0,0"
                   style="fill:#002a4f;fill-opacity:1;fill-rule:nonzero;stroke:none"
                   id="path110" /></g><g
                 transform="translate(355.1797,304.082)"
                 id="g116"><path
                   d="m 0,0 h -98.412 c -2.436,0 -4.41,1.975 -4.41,4.411 v 2.661 c 0,2.436 1.974,4.411 4.41,4.411 H 0 c 2.437,0 4.411,-1.975 4.411,-4.411 V 4.411 C 4.411,1.975 2.437,0 0,0"
                   style="fill:#002a4f;fill-opacity:1;fill-rule:nonzero;stroke:none"
                   id="path114" /></g><g
                 transform="translate(353.6689,166.7773)"
                 id="g120"><path
                   d="m 0,0 3.382,5.787 -14.998,0.004 1.066,-3.372 c 0.456,-1.441 1.779,-2.417 3.276,-2.417 z"
                   style="fill:#002a4f;fill-opacity:1;fill-rule:nonzero;stroke:none"
                   id="path118" /></g><g
                 transform="translate(383.0195,172.5557)"
                 id="g124"><path
                   d="m 0,0 -14.89,0.006 -3.379,-5.788 17.56,-0.007 c 0.199,0 0.253,-0.173 0.253,-0.262 0,-0.09 -0.041,-0.16 -0.123,-0.21 l -4.231,-2.543 0.002,-6.73 7.767,4.67 c 1.797,1.086 2.829,2.892 2.829,4.96 C 5.789,-3.004 3.625,-0.002 0,0"
                   style="fill:#002a4f;fill-opacity:1;fill-rule:nonzero;stroke:none"
                   id="path122" /></g><g
                 transform="translate(354.7012,149.5566)"
                 id="g128"><path
                   d="m 0,0 -5.485,-9.398 c -0.268,-0.56 0.098,-0.532 0.435,-0.375 0.285,0.173 0.555,0.336 0.767,0.466 L 13.915,1.684 13.913,8.411 Z"
                   style="fill:#002a4f;fill-opacity:1;fill-rule:nonzero;stroke:none"
                   id="path126" /></g><g
                 transform="translate(370.5586,164.8262)"
                 id="g132"><path
                   d="m 0,0 c 0,0 0.005,-17.066 0.005,-21.519 0,-1.512 1.111,-2.877 2.392,-3.31 0.831,-0.282 3.336,-1.079 3.336,-1.079 L 5.727,-0.002 Z"
                   style="fill:#002a4f;fill-opacity:1;fill-rule:nonzero;stroke:none"
                   id="path130" /></g><g
                 transform="translate(370.085,179.7197)"
                 id="g136"><path
                   d="M 0,0 C 0.054,0.081 0.12,0.12 0.211,0.12 0.298,0.12 0.47,0.066 0.47,-0.135 V -5.213 L 6.196,-5.221 6.188,0.583 c 0,3.661 -2.969,5.851 -5.838,5.851 -2.046,0 -3.833,-1.041 -4.904,-2.861 l -20.592,-35.202 c -0.635,-1.086 -0.712,-2.411 -0.207,-3.56 l 2.053,-4.683 z"
                   style="fill:#002a4f;fill-opacity:1;fill-rule:nonzero;stroke:none"
                   id="path134" /></g><g
                 transform="translate(278.2881,173.4736)"
                 id="g140"><path
                   d="m 0,0 c 0,-47.791 -38.742,-86.532 -86.532,-86.532 -47.791,0 -86.533,38.741 -86.533,86.532 0,47.791 38.742,86.533 86.533,86.533 C -38.742,86.533 0,47.791 0,0"
                   style="fill:#002a4f;fill-opacity:1;fill-rule:nonzero;stroke:none"
                   id="path138" /></g><g
                 transform="translate(266.7012,173.4736)"
                 id="g144"><path
                   d="m 0,0 c 0,-41.392 -33.554,-74.945 -74.945,-74.945 -41.392,0 -74.946,33.553 -74.946,74.945 0,41.392 33.554,74.945 74.946,74.945 C -33.554,74.945 0,41.392 0,0"
                   style="fill:#002a4f;fill-opacity:1;fill-rule:nonzero;stroke:none"
                   id="path142" /></g><g
                 transform="translate(148.8149,169.0479)"
                 id="g148"><path
                   d="m 0,0 c -1.571,0 -2.864,1.252 -2.904,2.832 -0.382,14.882 6.947,35.365 28.859,44.115 9.901,3.954 26.656,5.379 41.291,-3.615 1.368,-0.84 1.795,-2.63 0.955,-3.997 C 67.36,37.967 65.57,37.54 64.203,38.38 51.403,46.245 36.761,45.004 28.11,41.549 8.973,33.907 2.573,15.996 2.907,2.98 2.948,1.376 1.68,0.042 0.076,0.001 0.05,0 0.025,0 0,0"
                   style="fill:#002a4f;fill-opacity:1;fill-rule:nonzero;stroke:none"
                   id="path146" /></g><g
                 transform="translate(234.896,168.5176)"
                 id="g152"><path
                   d="m 0,0 c -0.096,0 -0.193,0.005 -0.291,0.015 -1.597,0.159 -2.763,1.582 -2.605,3.179 0.016,0.161 1.427,16.996 -12.096,30.519 -1.134,1.135 -1.134,2.975 0,4.11 1.136,1.135 2.976,1.135 4.111,0 C 4.648,22.294 2.968,3.415 2.889,2.619 2.739,1.12 1.476,0 0,0"
                   style="fill:#002a4f;fill-opacity:1;fill-rule:nonzero;stroke:none"
                   id="path150" /></g><g
                 transform="translate(192.6465,138.4658)"
                 id="g156"><path
                   d="m 0,0 c -1.765,0 -2.877,0.167 -3.058,0.196 -1.585,0.256 -2.661,1.748 -2.405,3.332 0.256,1.585 1.749,2.663 3.333,2.406 0.634,-0.098 16.026,-2.214 26.974,15.081 0.858,1.356 2.653,1.76 4.01,0.901 1.356,-0.858 1.76,-2.654 0.901,-4.01 C 19.649,1.941 6.024,0 0,0"
                   style="fill:#002a4f;fill-opacity:1;fill-rule:nonzero;stroke:none"
                   id="path154" /></g><g
                 transform="translate(191.1763,128.0156)"
                 id="g160"><path
                   d="m 0,0 c -1.709,0 -3.473,0.075 -5.293,0.23 -1.6,0.137 -2.786,1.544 -2.649,3.144 0.137,1.6 1.541,2.786 3.143,2.648 34.174,-2.919 42.878,24.678 43.76,27.834 0.432,1.546 2.037,2.449 3.581,2.018 1.546,-0.433 2.449,-2.036 2.018,-3.582 C 41.091,19.877 27.891,0 0,0"
                   style="fill:#002a4f;fill-opacity:1;fill-rule:nonzero;stroke:none"
                   id="path158" /></g><g
                 transform="translate(151.3936,156.4336)"
                 id="g164"><path
                   d="m 0,0 c -1.537,0 -2.82,1.205 -2.9,2.757 -0.081,1.587 1.126,2.942 2.705,3.049 0.611,0.059 5.579,0.84 5.63,10.26 0.029,5.385 2.422,17.874 11.274,26.594 6.02,5.931 13.758,8.886 23.038,8.805 11.612,-0.111 21.093,-4.335 27.415,-12.216 7.872,-9.813 8.855,-22.668 7.626,-28.466 -0.333,-1.57 -1.879,-2.572 -3.447,-2.24 -1.57,0.333 -2.572,1.877 -2.24,3.446 1.084,5.109 -0.208,15.814 -6.473,23.622 C 57.359,42.18 49.642,45.558 39.691,45.652 32.035,45.736 25.667,43.325 20.789,38.52 13.02,30.866 11.268,19.694 11.248,16.034 11.182,3.801 3.96,0.199 0.151,0.003 0.101,0.001 0.05,0 0,0"
                   style="fill:#002a4f;fill-opacity:1;fill-rule:nonzero;stroke:none"
                   id="path162" /></g><g
                 transform="translate(158.2471,144.1357)"
                 id="g168"><path
                   d="m 0,0 c -1.414,0 -2.654,1.034 -2.87,2.475 -0.238,1.582 0.847,3.057 2.425,3.303 0.972,0.162 9.307,1.866 9.415,12.635 0.215,21.396 7.781,32.452 23.132,33.801 8.429,0.742 16.495,-3.418 21.066,-10.85 4.696,-7.635 4.607,-16.851 -0.237,-24.654 -0.847,-1.363 -2.639,-1.783 -4.002,-0.937 -1.364,0.847 -1.783,2.639 -0.936,4.002 3.658,5.892 3.742,12.825 0.224,18.544 -3.41,5.545 -9.384,8.655 -15.607,8.104 C 24.434,45.705 15.018,41.866 14.783,18.354 14.654,5.551 5.342,0.771 0.436,0.033 0.29,0.011 0.144,0 0,0"
                   style="fill:#002a4f;fill-opacity:1;fill-rule:nonzero;stroke:none"
                   id="path166" /></g><g
                 transform="translate(193.8721,155.4355)"
                 id="g172"><path
                   d="M 0,0 C -0.02,-0.024 -0.043,-0.051 -0.067,-0.084 -0.045,-0.056 -0.023,-0.027 0,0 m -24.03,-21.899 c -0.821,0 -1.636,0.345 -2.211,1.017 -1.042,1.22 -0.899,3.053 0.319,4.096 0.172,0.148 17.176,14.948 12.559,28.892 -2.043,6.171 -0.621,10.282 0.933,12.644 2.044,3.11 5.575,5.101 9.685,5.462 C 0.747,30.52 4.041,29.36 6.528,26.951 9.437,24.134 10.896,20.014 10.636,15.35 10.421,11.471 6.139,-1.736 4.445,-3.746 3.41,-4.975 1.577,-5.13 0.349,-4.096 c -1.186,1.001 -1.372,2.749 -0.447,3.973 0.97,1.649 4.76,12.719 4.931,15.796 0.162,2.911 -0.694,5.5 -2.349,7.102 -1.276,1.237 -2.911,1.809 -4.72,1.646 -2.329,-0.204 -4.275,-1.248 -5.337,-2.864 -1.217,-1.85 -1.311,-4.486 -0.272,-7.623 5.846,-17.658 -13.473,-34.431 -14.299,-35.136 -0.547,-0.469 -1.218,-0.697 -1.886,-0.697"
                   style="fill:#002a4f;fill-opacity:1;fill-rule:nonzero;stroke:none"
                   id="path170" /></g><g
                 transform="translate(191.7559,225.4072)"
                 id="g176"><path
                   d="m 0,0 c -28.636,0 -51.934,-23.297 -51.934,-51.934 0,-28.636 23.298,-51.933 51.934,-51.933 28.636,0 51.934,23.297 51.934,51.933 C 51.934,-23.297 28.636,0 0,0 m 0,-109.68 c -31.841,0 -57.747,25.905 -57.747,57.746 0,31.842 25.906,57.746 57.747,57.746 31.841,0 57.746,-25.904 57.746,-57.746 0,-31.841 -25.905,-57.746 -57.746,-57.746"
                   style="fill:#002a4f;fill-opacity:1;fill-rule:nonzero;stroke:none"
                   id="path174" /></g></g></g></g></g></g><g
       id="g182"><g
         id="g184"><g
           id="g190"><g
             id="g192"><path
               d="m 189.954,408.047 c -7.473,0 -13.551,-6.08 -13.551,-13.553 v 0 -264.125 c 0,-7.472 6.078,-13.552 13.551,-13.552 v 0 h 205.147 c 7.472,0 13.55,6.08 13.55,13.552 v 0 264.125 c 0,7.473 -6.078,13.553 -13.55,13.553 v 0 z"
               style="fill:url(#linearGradient198);stroke:none"
               id="path200" /></g></g></g></g><g
       id="g202"><g
         id="g204"
         clip-path="url(#clipPath208)"><g
           id="g210"
           transform="translate(395.1006,408.1714)"><path
             d="m 0,0 h -205.147 c -7.553,0 -13.676,-6.123 -13.676,-13.677 v -264.125 c 0,-7.554 6.123,-13.677 13.676,-13.677 H 0 c 7.553,0 13.677,6.123 13.677,13.677 V -13.677 C 13.677,-6.123 7.553,0 0,0 m 0,-0.25 c 7.403,0 13.427,-6.023 13.427,-13.427 v -264.125 c 0,-7.405 -6.024,-13.427 -13.427,-13.427 h -205.147 c -7.403,0 -13.426,6.022 -13.426,13.427 v 264.125 c 0,7.404 6.023,13.427 13.426,13.427 L 0,-0.25"
             style="fill:#006993;fill-opacity:1;fill-rule:nonzero;stroke:none"
             id="path212" /></g><g
           id="g214"
           transform="translate(236.479,383.4321)"><path
             d="M 0,0 C -6.185,0 -11.217,5.032 -11.217,11.217 V 36.41 c 0,6.185 5.032,11.217 11.217,11.217 h 112.096 c 6.185,0 11.217,-5.032 11.217,-11.217 V 11.217 C 123.313,5.032 118.281,0 112.096,0 Z"
             style="fill:#ffffff;fill-opacity:1;fill-rule:nonzero;stroke:none"
             id="path216" /></g></g></g><g
       id="g218"><g
         id="g220"><g
           id="g226"><g
             id="g228"><path
               d="m 236.479,423.059 c -1.776,0 -3.217,-1.441 -3.217,-3.217 v 0 -25.193 c 0,-1.777 1.441,-3.217 3.217,-3.217 v 0 h 112.096 c 1.777,0 3.217,1.44 3.217,3.217 v 0 25.193 c 0,1.776 -1.44,3.217 -3.217,3.217 v 0 z"
               style="fill:url(#linearGradient234);stroke:none"
               id="path236" /></g></g></g></g><g
       id="g238"><g
         id="g240"><g
           id="g246"><g
             id="g248"><path
               d="m 254.768,352.76 c -2.436,0 -4.411,-1.974 -4.411,-4.411 v 0 -2.661 c 0,-2.436 1.975,-4.412 4.411,-4.412 v 0 h 116.047 c 2.437,0 4.411,1.976 4.411,4.412 v 0 2.661 c 0,2.437 -1.974,4.411 -4.411,4.411 v 0 z"
               style="fill:url(#linearGradient254);stroke:none"
               id="path256" /></g></g></g></g><g
       id="g258"><g
         id="g260"><g
           id="g266"><g
             id="g268"><path
               d="m 214.355,356.684 c -1.233,0 -2.232,-0.999 -2.232,-2.232 v 0 -14.867 c 0,-1.233 0.999,-2.232 2.232,-2.232 v 0 h 13.979 c 1.234,0 2.232,0.999 2.232,2.232 v 0 14.867 c 0,1.233 -0.998,2.232 -2.232,2.232 v 0 z"
               style="fill:url(#linearGradient274);stroke:none"
               id="path276" /></g></g></g></g><g
       id="g278"><g
         id="g280"><g
           id="g286"><g
             id="g288"><path
               d="m 214.355,321.49 c -1.233,0 -2.232,-1 -2.232,-2.233 v 0 -14.866 c 0,-1.234 0.999,-2.233 2.232,-2.233 v 0 h 13.979 c 1.234,0 2.232,0.999 2.232,2.233 v 0 14.866 c 0,1.233 -0.998,2.233 -2.232,2.233 v 0 z"
               style="fill:url(#linearGradient294);stroke:none"
               id="path296" /></g></g></g></g><g
       id="g298"><g
         id="g300"><g
           id="g306"><g
             id="g308"><path
               d="m 254.768,317.565 c -2.436,0 -4.411,-1.975 -4.411,-4.411 v 0 -2.661 c 0,-2.436 1.975,-4.411 4.411,-4.411 v 0 h 98.412 c 2.436,0 4.411,1.975 4.411,4.411 v 0 2.661 c 0,2.436 -1.975,4.411 -4.411,4.411 v 0 z"
               style="fill:url(#linearGradient314);stroke:none"
               id="path316" /></g></g></g></g><g
       id="g318"><g
         id="g320"
         clip-path="url(#clipPath324)"><g
           id="g326"
           transform="translate(351.6689,168.7773)"><path
             d="m 0,0 3.382,5.787 -14.998,0.004 1.066,-3.372 c 0.456,-1.441 1.779,-2.417 3.276,-2.417 z"
             style="fill:#ffffff;fill-opacity:1;fill-rule:nonzero;stroke:none"
             id="path328" /></g><g
           id="g330"
           transform="translate(381.0195,174.5557)"><path
             d="m 0,0 -14.89,0.006 -3.379,-5.788 17.56,-0.007 c 0.199,0 0.253,-0.173 0.253,-0.262 0,-0.09 -0.041,-0.16 -0.123,-0.21 l -4.231,-2.543 0.002,-6.73 7.767,4.67 c 1.797,1.086 2.829,2.892 2.829,4.96 C 5.789,-3.004 3.625,-0.002 0,0"
             style="fill:#ffffff;fill-opacity:1;fill-rule:nonzero;stroke:none"
             id="path332" /></g><g
           id="g334"
           transform="translate(352.7012,151.5566)"><path
             d="m 0,0 -5.485,-9.398 c -0.268,-0.56 0.098,-0.532 0.435,-0.375 0.285,0.173 0.555,0.336 0.767,0.466 L 13.915,1.684 13.913,8.411 Z"
             style="fill:#ffffff;fill-opacity:1;fill-rule:nonzero;stroke:none"
             id="path336" /></g><g
           id="g338"
           transform="translate(368.5586,166.8262)"><path
             d="m 0,0 c 0,0 0.005,-17.066 0.005,-21.519 0,-1.512 1.111,-2.877 2.392,-3.31 0.831,-0.282 3.336,-1.079 3.336,-1.079 L 5.727,-0.002 Z"
             style="fill:#ffffff;fill-opacity:1;fill-rule:nonzero;stroke:none"
             id="path340" /></g><g
           id="g342"
           transform="translate(368.085,181.7197)"><path
             d="M 0,0 C 0.054,0.081 0.12,0.12 0.211,0.12 0.298,0.12 0.47,0.066 0.47,-0.135 V -5.213 L 6.196,-5.221 6.188,0.583 c 0,3.661 -2.969,5.851 -5.838,5.851 -2.046,0 -3.833,-1.041 -4.904,-2.861 l -20.592,-35.202 c -0.635,-1.086 -0.712,-2.411 -0.207,-3.56 l 2.053,-4.683 z"
             style="fill:#ffffff;fill-opacity:1;fill-rule:nonzero;stroke:none"
             id="path344" /></g><g
           id="g346"
           transform="translate(276.2881,175.4736)"><path
             d="m 0,0 c 0,-47.791 -38.742,-86.532 -86.532,-86.532 -47.791,0 -86.533,38.741 -86.533,86.532 0,47.791 38.742,86.533 86.533,86.533 C -38.742,86.533 0,47.791 0,0"
             style="fill:#ffffff;fill-opacity:1;fill-rule:nonzero;stroke:none"
             id="path348" /></g></g></g><g
       id="g350"><g
         id="g352"><g
           id="g358"><g
             id="g360"><path
               d="m 114.81,175.474 c 0,-41.392 33.554,-74.946 74.946,-74.946 v 0 c 41.391,0 74.945,33.554 74.945,74.946 v 0 c 0,41.391 -33.554,74.945 -74.945,74.945 v 0 c -41.392,0 -74.946,-33.554 -74.946,-74.945"
               style="fill:url(#linearGradient366);stroke:none"
               id="path368" /></g></g></g></g><g
       id="g370"><g
         id="g372"
         clip-path="url(#clipPath376)"><g
           id="g378"
           transform="translate(146.8149,171.0479)"><path
             d="m 0,0 c -1.571,0 -2.864,1.252 -2.904,2.832 -0.382,14.882 6.947,35.365 28.859,44.115 9.901,3.954 26.656,5.379 41.291,-3.615 1.368,-0.84 1.795,-2.63 0.955,-3.997 C 67.36,37.967 65.57,37.54 64.203,38.38 51.403,46.245 36.761,45.004 28.11,41.549 8.973,33.907 2.573,15.996 2.907,2.98 2.948,1.376 1.68,0.042 0.076,0.001 0.05,0 0.025,0 0,0"
             style="fill:#ffffff;fill-opacity:1;fill-rule:nonzero;stroke:none"
             id="path380" /></g><g
           id="g382"
           transform="translate(232.896,170.5176)"><path
             d="m 0,0 c -0.096,0 -0.193,0.005 -0.291,0.015 -1.597,0.159 -2.763,1.582 -2.605,3.179 0.016,0.161 1.427,16.996 -12.096,30.519 -1.134,1.135 -1.134,2.975 0,4.11 1.136,1.135 2.976,1.135 4.111,0 C 4.648,22.294 2.968,3.415 2.889,2.619 2.739,1.12 1.476,0 0,0"
             style="fill:#ffffff;fill-opacity:1;fill-rule:nonzero;stroke:none"
             id="path384" /></g><g
           id="g386"
           transform="translate(190.6465,140.4658)"><path
             d="m 0,0 c -1.765,0 -2.877,0.167 -3.058,0.196 -1.585,0.256 -2.661,1.748 -2.405,3.332 0.256,1.585 1.749,2.663 3.333,2.406 0.634,-0.098 16.026,-2.214 26.974,15.081 0.858,1.356 2.653,1.76 4.01,0.901 1.356,-0.858 1.76,-2.654 0.901,-4.01 C 19.649,1.941 6.024,0 0,0"
             style="fill:#ffffff;fill-opacity:1;fill-rule:nonzero;stroke:none"
             id="path388" /></g><g
           id="g390"
           transform="translate(189.1763,130.0156)"><path
             d="m 0,0 c -1.709,0 -3.473,0.075 -5.293,0.23 -1.6,0.137 -2.786,1.544 -2.649,3.144 0.137,1.6 1.541,2.786 3.143,2.648 34.174,-2.919 42.878,24.678 43.76,27.834 0.432,1.546 2.037,2.449 3.581,2.018 1.546,-0.433 2.449,-2.036 2.018,-3.582 C 41.091,19.877 27.891,0 0,0"
             style="fill:#ffffff;fill-opacity:1;fill-rule:nonzero;stroke:none"
             id="path392" /></g><g
           id="g394"
           transform="translate(149.3936,158.4336)"><path
             d="m 0,0 c -1.537,0 -2.82,1.205 -2.9,2.757 -0.081,1.587 1.126,2.942 2.705,3.049 0.611,0.059 5.579,0.84 5.63,10.26 0.029,5.385 2.422,17.874 11.274,26.594 6.02,5.931 13.758,8.886 23.038,8.805 11.612,-0.111 21.093,-4.335 27.415,-12.216 7.872,-9.813 8.855,-22.668 7.626,-28.466 -0.333,-1.57 -1.879,-2.572 -3.447,-2.24 -1.57,0.333 -2.572,1.877 -2.24,3.446 1.084,5.109 -0.208,15.814 -6.473,23.622 C 57.359,42.18 49.642,45.558 39.691,45.652 32.035,45.736 25.667,43.325 20.789,38.52 13.02,30.866 11.268,19.694 11.248,16.034 11.182,3.801 3.96,0.199 0.151,0.003 0.101,0.001 0.05,0 0,0"
             style="fill:#ffffff;fill-opacity:1;fill-rule:nonzero;stroke:none"
             id="path396" /></g><g
           id="g398"
           transform="translate(156.2471,146.1357)"><path
             d="m 0,0 c -1.414,0 -2.654,1.034 -2.87,2.475 -0.238,1.582 0.847,3.057 2.425,3.303 0.972,0.162 9.307,1.866 9.415,12.635 0.215,21.396 7.781,32.452 23.132,33.801 8.429,0.742 16.495,-3.418 21.066,-10.85 4.696,-7.635 4.607,-16.851 -0.237,-24.654 -0.847,-1.363 -2.639,-1.783 -4.002,-0.937 -1.364,0.847 -1.783,2.639 -0.936,4.002 3.658,5.892 3.742,12.825 0.224,18.544 -3.41,5.545 -9.384,8.655 -15.607,8.104 C 24.434,45.705 15.018,41.866 14.783,18.354 14.654,5.551 5.342,0.771 0.436,0.033 0.29,0.011 0.144,0 0,0"
             style="fill:#ffffff;fill-opacity:1;fill-rule:nonzero;stroke:none"
             id="path400" /></g><g
           id="g402"
           transform="translate(191.8721,157.4355)"><path
             d="M 0,0 C -0.02,-0.024 -0.043,-0.051 -0.067,-0.084 -0.045,-0.056 -0.023,-0.027 0,0 m -24.03,-21.899 c -0.821,0 -1.636,0.345 -2.211,1.017 -1.042,1.22 -0.899,3.053 0.319,4.096 0.172,0.148 17.176,14.948 12.559,28.892 -2.043,6.171 -0.621,10.282 0.933,12.644 2.044,3.11 5.575,5.101 9.685,5.462 C 0.747,30.52 4.041,29.36 6.528,26.951 9.437,24.134 10.896,20.014 10.636,15.35 10.421,11.471 6.139,-1.736 4.445,-3.746 3.41,-4.975 1.577,-5.13 0.349,-4.096 c -1.186,1.001 -1.372,2.749 -0.447,3.973 0.97,1.649 4.76,12.719 4.931,15.796 0.162,2.911 -0.694,5.5 -2.349,7.102 -1.276,1.237 -2.911,1.809 -4.72,1.646 -2.329,-0.204 -4.275,-1.248 -5.337,-2.864 -1.217,-1.85 -1.311,-4.486 -0.272,-7.623 5.846,-17.658 -13.473,-34.431 -14.299,-35.136 -0.547,-0.469 -1.218,-0.697 -1.886,-0.697"
             style="fill:#ffffff;fill-opacity:1;fill-rule:nonzero;stroke:none"
             id="path404" /></g><g
           id="g406"
           transform="translate(189.7559,227.4072)"><path
             d="m 0,0 c -28.636,0 -51.934,-23.297 -51.934,-51.934 0,-28.636 23.298,-51.933 51.934,-51.933 28.636,0 51.934,23.297 51.934,51.933 C 51.934,-23.297 28.636,0 0,0 m 0,-109.68 c -31.841,0 -57.747,25.905 -57.747,57.746 0,31.842 25.906,57.746 57.747,57.746 31.841,0 57.746,-25.904 57.746,-57.746 0,-31.841 -25.905,-57.746 -57.746,-57.746"
             style="fill:#ffffff;fill-opacity:1;fill-rule:nonzero;stroke:none"
             id="path408" /></g></g></g></g></svg>
